<svg version="1.1" viewBox="0.0 0.0 600.0 371.0" fill="none" stroke="none" stroke-linecap="square" stroke-miterlimit="10" width="600" height="371" xmlns:xlink="http://www.w3.org/1999/xlink" xmlns="http://www.w3.org/2000/svg"><path fill="#ffffff" d="M0 0L600.0 0L600.0 371.0L0 371.0L0 0Z" fill-rule="nonzero"/><path stroke="#cccccc" stroke-width="1.0" stroke-linecap="butt" d="M93.5 51.5L93.5 332.5" fill-rule="nonzero"/><path stroke="#cccccc" stroke-width="1.0" stroke-linecap="butt" d="M256.5 51.5L256.5 332.5" fill-rule="nonzero"/><path stroke="#cccccc" stroke-width="1.0" stroke-linecap="butt" d="M418.5 51.5L418.5 332.5" fill-rule="nonzero"/><path stroke="#cccccc" stroke-width="1.0" stroke-linecap="butt" d="M581.5 51.5L581.5 332.5" fill-rule="nonzero"/><path stroke="#333333" stroke-width="1.0" stroke-linecap="butt" d="M93.5 332.5L581.5 332.5" fill-rule="nonzero"/><path stroke="#cccccc" stroke-width="1.0" stroke-linecap="butt" d="M93.5 238.5L581.5 238.5" fill-rule="nonzero"/><path stroke="#cccccc" stroke-width="1.0" stroke-linecap="butt" d="M93.5 145.5L581.5 145.5" fill-rule="nonzero"/><path stroke="#cccccc" stroke-width="1.0" stroke-linecap="butt" d="M93.5 51.5L581.5 51.5" fill-rule="nonzero"/><clipPath id="id_0"><path d="M93.55 51.916668L581.45 51.916668L581.45 332.45L93.55 332.45L93.55 51.916668Z" clip-rule="nonzero"/></clipPath><path stroke="#ff0000" stroke-width="2.0" stroke-linecap="butt" stroke-dasharray="8.0,6.0" clip-path="url(#id_0)" d="M93.55 215.1062C93.55 215.1062 234.49889 205.73952 256.18332 205.08275C277.86777 204.42598 299.55222 205.39844 321.23666 205.15154C342.9211 204.90463 364.60556 203.7962 386.29 203.60136C407.97446 203.40654 429.65887 208.50676 451.34332 203.98256C473.02777 199.45836 494.71222 180.08572 516.39667 176.45616C538.0811 172.82661 581.45 182.20523 581.45 182.20523" fill-rule="nonzero"/><path stroke="#ea4335" stroke-width="2.0" stroke-linecap="butt" clip-path="url(#id_0)" d="M93.55 124.681404C93.55 124.681404 234.49889 106.44736 256.18332 107.176125C277.86777 107.904884 299.55222 114.17824 321.23666 118.55081C342.9211 122.92339 364.60556 129.71573 386.29 133.4116C407.97446 137.10747 429.65887 146.72134 451.34332 140.72604C473.02777 134.73073 494.71222 103.3269 516.39667 97.43974C538.0811 91.5526 581.45 105.40315 581.45 105.40315" fill-rule="nonzero"/><path stroke="#34a853" stroke-width="2.0" stroke-linecap="butt" stroke-dasharray="8.0,6.0" clip-path="url(#id_0)" d="M93.55 222.84415C93.55 222.84415 234.49889 209.43208 256.18332 204.938C277.86777 200.44391 299.55222 187.29828 321.23666 185.13594C342.9211 182.9736 364.60556 192.26585 386.29 191.96399C407.97446 191.66211 429.65887 184.51596 451.34332 183.32474C473.02777 182.1335 494.71222 184.10706 516.39667 184.81659C538.0811 185.52612 581.45 187.58194 581.45 187.58194" fill-rule="nonzero"/><path stroke="#34a853" stroke-width="2.0" stroke-linecap="butt" clip-path="url(#id_0)" d="M93.55 130.43234C93.55 130.43234 234.49889 108.72523 256.18332 107.060165C277.86777 105.39511 299.55222 107.61313 321.23666 106.418686C342.9211 105.224236 364.60556 99.87353 386.29 99.89348C407.97446 99.91343 429.65887 105.19961 451.34332 106.538376C473.02777 107.877144 494.71222 107.388084 516.39667 107.92608C538.0811 108.46408 581.45 109.76638 581.45 109.76638" fill-rule="nonzero"/><path fill="#000000" fill-opacity="0.0" clip-path="url(#id_0)" d="M96.55 215.1062C96.55 216.76305 95.206856 218.1062 93.55 218.1062C91.89314 218.1062 90.55 216.76305 90.55 215.1062C90.55 213.44934 91.89314 212.1062 93.55 212.1062C95.206856 212.1062 96.55 213.44934 96.55 215.1062Z" fill-rule="nonzero"/><path fill="#000000" fill-opacity="0.0" clip-path="url(#id_0)" d="M259.18332 205.08275C259.18332 206.73961 257.84018 208.08275 256.18332 208.08275C254.52647 208.08275 253.18333 206.73961 253.18333 205.08275C253.18333 203.42589 254.52647 202.08275 256.18332 202.08275C257.84018 202.08275 259.18332 203.42589 259.18332 205.08275Z" fill-rule="nonzero"/><path fill="#000000" fill-opacity="0.0" clip-path="url(#id_0)" d="M324.23666 205.15154C324.23666 206.8084 322.89352 208.15154 321.23666 208.15154C319.5798 208.15154 318.23666 206.8084 318.23666 205.15154C318.23666 203.49467 319.5798 202.15154 321.23666 202.15154C322.89352 202.15154 324.23666 203.49467 324.23666 205.15154Z" fill-rule="nonzero"/><path fill="#000000" fill-opacity="0.0" clip-path="url(#id_0)" d="M389.29 203.60136C389.29 205.25822 387.94687 206.60136 386.29 206.60136C384.63315 206.60136 383.29 205.25822 383.29 203.60136C383.29 201.94452 384.63315 200.60136 386.29 200.60136C387.94687 200.60136 389.29 201.94452 389.29 203.60136Z" fill-rule="nonzero"/><path fill="#000000" fill-opacity="0.0" clip-path="url(#id_0)" d="M454.34332 203.98256C454.34332 205.63942 453.00018 206.98256 451.34332 206.98256C449.6865 206.98256 448.34332 205.63942 448.34332 203.98256C448.34332 202.3257 449.6865 200.98256 451.34332 200.98256C453.00018 200.98256 454.34332 202.3257 454.34332 203.98256Z" fill-rule="nonzero"/><path fill="#000000" fill-opacity="0.0" clip-path="url(#id_0)" d="M519.39667 176.45616C519.39667 178.11302 518.0535 179.45616 516.39667 179.45616C514.7398 179.45616 513.39667 178.11302 513.39667 176.45616C513.39667 174.79932 514.7398 173.45616 516.39667 173.45616C518.0535 173.45616 519.39667 174.79932 519.39667 176.45616Z" fill-rule="nonzero"/><path fill="#000000" fill-opacity="0.0" clip-path="url(#id_0)" d="M584.45 182.20523C584.45 183.86209 583.1069 185.20523 581.45 185.20523C579.79315 185.20523 578.45 183.86209 578.45 182.20523C578.45 180.54839 579.79315 179.20523 581.45 179.20523C583.1069 179.20523 584.45 180.54839 584.45 182.20523Z" fill-rule="nonzero"/><path fill="#000000" fill-opacity="0.0" clip-path="url(#id_0)" d="M96.55 124.681404C96.55 126.33826 95.206856 127.681404 93.55 127.681404C91.89314 127.681404 90.55 126.33826 90.55 124.681404C90.55 123.02455 91.89314 121.681404 93.55 121.681404C95.206856 121.681404 96.55 123.02455 96.55 124.681404Z" fill-rule="nonzero"/><path fill="#000000" fill-opacity="0.0" clip-path="url(#id_0)" d="M259.18332 107.176125C259.18332 108.83298 257.84018 110.176125 256.18332 110.176125C254.52647 110.176125 253.18333 108.83298 253.18333 107.176125C253.18333 105.51927 254.52647 104.176125 256.18332 104.176125C257.84018 104.176125 259.18332 105.51927 259.18332 107.176125Z" fill-rule="nonzero"/><path fill="#000000" fill-opacity="0.0" clip-path="url(#id_0)" d="M324.23666 118.55081C324.23666 120.20767 322.89352 121.55081 321.23666 121.55081C319.5798 121.55081 318.23666 120.20767 318.23666 118.55081C318.23666 116.89396 319.5798 115.55081 321.23666 115.55081C322.89352 115.55081 324.23666 116.89396 324.23666 118.55081Z" fill-rule="nonzero"/><path fill="#000000" fill-opacity="0.0" clip-path="url(#id_0)" d="M389.29 133.4116C389.29 135.06845 387.94687 136.4116 386.29 136.4116C384.63315 136.4116 383.29 135.06845 383.29 133.4116C383.29 131.75475 384.63315 130.4116 386.29 130.4116C387.94687 130.4116 389.29 131.75475 389.29 133.4116Z" fill-rule="nonzero"/><path fill="#000000" fill-opacity="0.0" clip-path="url(#id_0)" d="M454.34332 140.72604C454.34332 142.38289 453.00018 143.72604 451.34332 143.72604C449.6865 143.72604 448.34332 142.38289 448.34332 140.72604C448.34332 139.06918 449.6865 137.72604 451.34332 137.72604C453.00018 137.72604 454.34332 139.06918 454.34332 140.72604Z" fill-rule="nonzero"/><path fill="#000000" fill-opacity="0.0" clip-path="url(#id_0)" d="M519.39667 97.43974C519.39667 99.0966 518.0535 100.43974 516.39667 100.43974C514.7398 100.43974 513.39667 99.0966 513.39667 97.43974C513.39667 95.78289 514.7398 94.43974 516.39667 94.43974C518.0535 94.43974 519.39667 95.78289 519.39667 97.43974Z" fill-rule="nonzero"/><path fill="#000000" fill-opacity="0.0" clip-path="url(#id_0)" d="M584.45 105.40315C584.45 107.060005 583.1069 108.40315 581.45 108.40315C579.79315 108.40315 578.45 107.060005 578.45 105.40315C578.45 103.7463 579.79315 102.40315 581.45 102.40315C583.1069 102.40315 584.45 103.7463 584.45 105.40315Z" fill-rule="nonzero"/><path fill="#000000" fill-opacity="0.0" clip-path="url(#id_0)" d="M96.55 222.84415C96.55 224.501 95.206856 225.84415 93.55 225.84415C91.89314 225.84415 90.55 224.501 90.55 222.84415C90.55 221.18729 91.89314 219.84415 93.55 219.84415C95.206856 219.84415 96.55 221.18729 96.55 222.84415Z" fill-rule="nonzero"/><path fill="#000000" fill-opacity="0.0" clip-path="url(#id_0)" d="M259.18332 204.938C259.18332 206.59486 257.84018 207.938 256.18332 207.938C254.52647 207.938 253.18333 206.59486 253.18333 204.938C253.18333 203.28114 254.52647 201.938 256.18332 201.938C257.84018 201.938 259.18332 203.28114 259.18332 204.938Z" fill-rule="nonzero"/><path fill="#000000" fill-opacity="0.0" clip-path="url(#id_0)" d="M324.23666 185.13594C324.23666 186.7928 322.89352 188.13594 321.23666 188.13594C319.5798 188.13594 318.23666 186.7928 318.23666 185.13594C318.23666 183.4791 319.5798 182.13594 321.23666 182.13594C322.89352 182.13594 324.23666 183.4791 324.23666 185.13594Z" fill-rule="nonzero"/><path fill="#000000" fill-opacity="0.0" clip-path="url(#id_0)" d="M389.29 191.96399C389.29 193.62083 387.94687 194.96399 386.29 194.96399C384.63315 194.96399 383.29 193.62083 383.29 191.96399C383.29 190.30713 384.63315 188.96399 386.29 188.96399C387.94687 188.96399 389.29 190.30713 389.29 191.96399Z" fill-rule="nonzero"/><path fill="#000000" fill-opacity="0.0" clip-path="url(#id_0)" d="M454.34332 183.32474C454.34332 184.98158 453.00018 186.32474 451.34332 186.32474C449.6865 186.32474 448.34332 184.98158 448.34332 183.32474C448.34332 181.66788 449.6865 180.32474 451.34332 180.32474C453.00018 180.32474 454.34332 181.66788 454.34332 183.32474Z" fill-rule="nonzero"/><path fill="#000000" fill-opacity="0.0" clip-path="url(#id_0)" d="M519.39667 184.81659C519.39667 186.47345 518.0535 187.81659 516.39667 187.81659C514.7398 187.81659 513.39667 186.47345 513.39667 184.81659C513.39667 183.15974 514.7398 181.81659 516.39667 181.81659C518.0535 181.81659 519.39667 183.15974 519.39667 184.81659Z" fill-rule="nonzero"/><path fill="#000000" fill-opacity="0.0" clip-path="url(#id_0)" d="M584.45 187.58194C584.45 189.23878 583.1069 190.58194 581.45 190.58194C579.79315 190.58194 578.45 189.23878 578.45 187.58194C578.45 185.92508 579.79315 184.58194 581.45 184.58194C583.1069 184.58194 584.45 185.92508 584.45 187.58194Z" fill-rule="nonzero"/><path fill="#000000" fill-opacity="0.0" clip-path="url(#id_0)" d="M96.55 130.43234C96.55 132.08919 95.206856 133.43234 93.55 133.43234C91.89314 133.43234 90.55 132.08919 90.55 130.43234C90.55 128.77548 91.89314 127.432335 93.55 127.432335C95.206856 127.432335 96.55 128.77548 96.55 130.43234Z" fill-rule="nonzero"/><path fill="#000000" fill-opacity="0.0" clip-path="url(#id_0)" d="M259.18332 107.060165C259.18332 108.717026 257.84018 110.060165 256.18332 110.060165C254.52647 110.060165 253.18333 108.717026 253.18333 107.060165C253.18333 105.40331 254.52647 104.060165 256.18332 104.060165C257.84018 104.060165 259.18332 105.40331 259.18332 107.060165Z" fill-rule="nonzero"/><path fill="#000000" fill-opacity="0.0" clip-path="url(#id_0)" d="M324.23666 106.418686C324.23666 108.07554 322.89352 109.418686 321.23666 109.418686C319.5798 109.418686 318.23666 108.07554 318.23666 106.418686C318.23666 104.761826 319.5798 103.418686 321.23666 103.418686C322.89352 103.418686 324.23666 104.761826 324.23666 106.418686Z" fill-rule="nonzero"/><path fill="#000000" fill-opacity="0.0" clip-path="url(#id_0)" d="M389.29 99.89348C389.29 101.55033 387.94687 102.89348 386.29 102.89348C384.63315 102.89348 383.29 101.55033 383.29 99.89348C383.29 98.236626 384.63315 96.89348 386.29 96.89348C387.94687 96.89348 389.29 98.236626 389.29 99.89348Z" fill-rule="nonzero"/><path fill="#000000" fill-opacity="0.0" clip-path="url(#id_0)" d="M454.34332 106.538376C454.34332 108.19523 453.00018 109.538376 451.34332 109.538376C449.6865 109.538376 448.34332 108.19523 448.34332 106.538376C448.34332 104.88152 449.6865 103.538376 451.34332 103.538376C453.00018 103.538376 454.34332 104.88152 454.34332 106.538376Z" fill-rule="nonzero"/><path fill="#000000" fill-opacity="0.0" clip-path="url(#id_0)" d="M519.39667 107.92608C519.39667 109.58294 518.0535 110.92608 516.39667 110.92608C514.7398 110.92608 513.39667 109.58294 513.39667 107.92608C513.39667 106.269226 514.7398 104.92608 516.39667 104.92608C518.0535 104.92608 519.39667 106.269226 519.39667 107.92608Z" fill-rule="nonzero"/><path fill="#000000" fill-opacity="0.0" clip-path="url(#id_0)" d="M584.45 109.76638C584.45 111.42323 583.1069 112.76638 581.45 112.76638C579.79315 112.76638 578.45 111.42323 578.45 109.76638C578.45 108.10953 579.79315 106.76638 581.45 106.76638C583.1069 106.76638 584.45 108.10953 584.45 109.76638Z" fill-rule="nonzero"/><path fill="#000000" d="M67.05 332.21564Q67.05 330.6844 67.3625 329.7625Q67.675 328.825 68.28438 328.325Q68.90938 327.825 69.84688 327.825Q70.53438 327.825 71.05 328.10626Q71.58125 328.3875 71.925 328.91876Q72.26875 329.4344 72.45625 330.1844Q72.64375 330.9344 72.64375 332.21564Q72.64375 333.73126 72.33125 334.65314Q72.03438 335.575 71.40938 336.09064Q70.8 336.59064 69.84688 336.59064Q68.6125 336.59064 67.89375 335.7Q67.05 334.6375 67.05 332.21564ZM68.12813 332.21564Q68.12813 334.325 68.62813 335.02814Q69.12813 335.73126 69.84688 335.73126Q70.58125 335.73126 71.06563 335.02814Q71.56563 334.325 71.56563 332.21564Q71.56563 330.09064 71.06563 329.40314Q70.58125 328.7 69.83125 328.7Q69.1125 328.7 68.675 329.3094Q68.12813 330.09064 68.12813 332.21564ZM74.05 332.21564Q74.05 330.6844 74.3625 329.7625Q74.675 328.825 75.28438 328.325Q75.90938 327.825 76.84688 327.825Q77.53438 327.825 78.05 328.10626Q78.58125 328.3875 78.925 328.91876Q79.26875 329.4344 79.45625 330.1844Q79.64375 330.9344 79.64375 332.21564Q79.64375 333.73126 79.33125 334.65314Q79.03438 335.575 78.40938 336.09064Q77.8 336.59064 76.84688 336.59064Q75.6125 336.59064 74.89375 335.7Q74.05 334.6375 74.05 332.21564ZM75.12813 332.21564Q75.12813 334.325 75.62813 335.02814Q76.12813 335.73126 76.84688 335.73126Q77.58125 335.73126 78.06563 335.02814Q78.56563 334.325 78.56563 332.21564Q78.56563 330.09064 78.06563 329.40314Q77.58125 328.7 76.83125 328.7Q76.1125 328.7 75.675 329.3094Q75.12813 330.09064 75.12813 332.21564ZM81.05 332.21564Q81.05 330.6844 81.3625 329.7625Q81.675 328.825 82.28438 328.325Q82.90938 327.825 83.84688 327.825Q84.53438 327.825 85.05 328.10626Q85.58125 328.3875 85.925 328.91876Q86.26875 329.4344 86.45625 330.1844Q86.64375 330.9344 86.64375 332.21564Q86.64375 333.73126 86.33125 334.65314Q86.03438 335.575 85.40938 336.09064Q84.8 336.59064 83.84688 336.59064Q82.6125 336.59064 81.89375 335.7Q81.05 334.6375 81.05 332.21564ZM82.12813 332.21564Q82.12813 334.325 82.62813 335.02814Q83.12813 335.73126 83.84688 335.73126Q84.58125 335.73126 85.06563 335.02814Q85.56563 334.325 85.56563 332.21564Q85.56563 330.09064 85.06563 329.40314Q84.58125 328.7 83.83125 328.7Q83.1125 328.7 82.675 329.3094Q82.12813 330.09064 82.12813 332.21564Z" fill-rule="nonzero"/><path fill="#000000" d="M24.596874 241.92326L24.596874 242.93889L18.909374 242.93889Q18.909374 242.56389 19.034374 242.20451Q19.253124 241.62639 19.721874 241.06389Q20.20625 240.50139 21.1125 239.76701Q22.51875 238.61076 23.003124 237.93889Q23.503124 237.26701 23.503124 236.67326Q23.503124 236.04826 23.05 235.62639Q22.596874 235.18889 21.878124 235.18889Q21.1125 235.18889 20.659374 235.64201Q20.20625 236.09514 20.190624 236.90764L19.1125 236.79826Q19.221874 235.57951 19.940624 234.95451Q20.675 234.31389 21.909374 234.31389Q23.14375 234.31389 23.8625 235.00139Q24.58125 235.68889 24.58125 236.70451Q24.58125 237.22014 24.3625 237.72014Q24.159374 238.20451 23.659374 238.76701Q23.175 239.31389 22.05 240.26701Q21.096874 241.06389 20.815624 241.36076Q20.55 241.64201 20.378124 241.92326L24.596874 241.92326ZM26.05 238.70451Q26.05 237.17326 26.3625 236.25139Q26.675 235.31389 27.284374 234.81389Q27.909374 234.31389 28.846874 234.31389Q29.534374 234.31389 30.05 234.59514Q30.58125 234.87639 30.925 235.40764Q31.26875 235.92326 31.45625 236.67326Q31.64375 237.42326 31.64375 238.70451Q31.64375 240.22014 31.33125 241.14201Q31.034374 242.06389 30.409374 242.57951Q29.8 243.07951 28.846874 243.07951Q27.6125 243.07951 26.89375 242.18889Q26.05 241.12639 26.05 238.70451ZM27.128124 238.70451Q27.128124 240.81389 27.628124 241.51701Q28.128124 242.22014 28.846874 242.22014Q29.58125 242.22014 30.065624 241.51701Q30.565624 240.81389 30.565624 238.70451Q30.565624 236.57951 30.065624 235.89201Q29.58125 235.18889 28.83125 235.18889Q28.1125 235.18889 27.675 235.79826Q27.128124 236.57951 27.128124 238.70451ZM33.05 238.70451Q33.05 237.17326 33.3625 236.25139Q33.675 235.31389 34.284374 234.81389Q34.909374 234.31389 35.846874 234.31389Q36.534374 234.31389 37.05 234.59514Q37.58125 234.87639 37.925 235.40764Q38.26875 235.92326 38.45625 236.67326Q38.64375 237.42326 38.64375 238.70451Q38.64375 240.22014 38.33125 241.14201Q38.034374 242.06389 37.409374 242.57951Q36.8 243.07951 35.846874 243.07951Q34.6125 243.07951 33.89375 242.18889Q33.05 241.12639 33.05 238.70451ZM34.128124 238.70451Q34.128124 240.81389 34.628124 241.51701Q35.128124 242.22014 35.846874 242.22014Q36.58125 242.22014 37.065624 241.51701Q37.565624 240.81389 37.565624 238.70451Q37.565624 236.57951 37.065624 235.89201Q36.58125 235.18889 35.83125 235.18889Q35.1125 235.18889 34.675 235.79826Q34.128124 236.57951 34.128124 238.70451ZM40.6125 242.93889L40.6125 241.73576L41.815624 241.73576L41.815624 242.93889Q41.815624 243.59514 41.58125 244.00139Q41.346874 244.42326 40.846874 244.64201L40.55 244.18889Q40.878124 244.04826 41.034374 243.75139Q41.190624 243.47014 41.221874 242.93889L40.6125 242.93889ZM43.05 238.70451Q43.05 237.17326 43.3625 236.25139Q43.675 235.31389 44.284374 234.81389Q44.909374 234.31389 45.846874 234.31389Q46.534374 234.31389 47.05 234.59514Q47.58125 234.87639 47.925 235.40764Q48.26875 235.92326 48.45625 236.67326Q48.64375 237.42326 48.64375 238.70451Q48.64375 240.22014 48.33125 241.14201Q48.034374 242.06389 47.409374 242.57951Q46.8 243.07951 45.846874 243.07951Q44.6125 243.07951 43.89375 242.18889Q43.05 241.12639 43.05 238.70451ZM44.128124 238.70451Q44.128124 240.81389 44.628124 241.51701Q45.128124 242.22014 45.846874 242.22014Q46.58125 242.22014 47.065624 241.51701Q47.565624 240.81389 47.565624 238.70451Q47.565624 236.57951 47.065624 235.89201Q46.58125 235.18889 45.83125 235.18889Q45.1125 235.18889 44.675 235.79826Q44.128124 236.57951 44.128124 238.70451ZM50.05 238.70451Q50.05 237.17326 50.3625 236.25139Q50.675 235.31389 51.284374 234.81389Q51.909374 234.31389 52.846874 234.31389Q53.534374 234.31389 54.05 234.59514Q54.58125 234.87639 54.925 235.40764Q55.26875 235.92326 55.45625 236.67326Q55.64375 237.42326 55.64375 238.70451Q55.64375 240.22014 55.33125 241.14201Q55.034374 242.06389 54.409374 242.57951Q53.8 243.07951 52.846874 243.07951Q51.6125 243.07951 50.89375 242.18889Q50.05 241.12639 50.05 238.70451ZM51.128124 238.70451Q51.128124 240.81389 51.628124 241.51701Q52.128124 242.22014 52.846874 242.22014Q53.58125 242.22014 54.065624 241.51701Q54.565624 240.81389 54.565624 238.70451Q54.565624 236.57951 54.065624 235.89201Q53.58125 235.18889 52.83125 235.18889Q52.1125 235.18889 51.675 235.79826Q51.128124 236.57951 51.128124 238.70451ZM57.05 238.70451Q57.05 237.17326 57.3625 236.25139Q57.675 235.31389 58.284374 234.81389Q58.909374 234.31389 59.846874 234.31389Q60.534374 234.31389 61.05 234.59514Q61.58125 234.87639 61.925 235.40764Q62.26875 235.92326 62.45625 236.67326Q62.64375 237.42326 62.64375 238.70451Q62.64375 240.22014 62.33125 241.14201Q62.034374 242.06389 61.409374 242.57951Q60.8 243.07951 59.846874 243.07951Q58.6125 243.07951 57.89375 242.18889Q57.05 241.12639 57.05 238.70451ZM58.128124 238.70451Q58.128124 240.81389 58.628124 241.51701Q59.128124 242.22014 59.846874 242.22014Q60.58125 242.22014 61.065624 241.51701Q61.565624 240.81389 61.565624 238.70451Q61.565624 236.57951 61.065624 235.89201Q60.58125 235.18889 59.83125 235.18889Q59.1125 235.18889 58.675 235.79826Q58.128124 236.57951 58.128124 238.70451ZM64.6125 242.93889L64.6125 241.73576L65.81563 241.73576L65.81563 242.93889Q65.81563 243.59514 65.58125 244.00139Q65.34688 244.42326 64.84688 244.64201L64.55 244.18889Q64.87813 244.04826 65.03438 243.75139Q65.19063 243.47014 65.22188 242.93889L64.6125 242.93889ZM67.05 238.70451Q67.05 237.17326 67.3625 236.25139Q67.675 235.31389 68.28438 234.81389Q68.90938 234.31389 69.84688 234.31389Q70.53438 234.31389 71.05 234.59514Q71.58125 234.87639 71.925 235.40764Q72.26875 235.92326 72.45625 236.67326Q72.64375 237.42326 72.64375 238.70451Q72.64375 240.22014 72.33125 241.14201Q72.03438 242.06389 71.40938 242.57951Q70.8 243.07951 69.84688 243.07951Q68.6125 243.07951 67.89375 242.18889Q67.05 241.12639 67.05 238.70451ZM68.12813 238.70451Q68.12813 240.81389 68.62813 241.51701Q69.12813 242.22014 69.84688 242.22014Q70.58125 242.22014 71.06563 241.51701Q71.56563 240.81389 71.56563 238.70451Q71.56563 236.57951 71.06563 235.89201Q70.58125 235.18889 69.83125 235.18889Q69.1125 235.18889 68.675 235.79826Q68.12813 236.57951 68.12813 238.70451ZM74.05 238.70451Q74.05 237.17326 74.3625 236.25139Q74.675 235.31389 75.28438 234.81389Q75.90938 234.31389 76.84688 234.31389Q77.53438 234.31389 78.05 234.59514Q78.58125 234.87639 78.925 235.40764Q79.26875 235.92326 79.45625 236.67326Q79.64375 237.42326 79.64375 238.70451Q79.64375 240.22014 79.33125 241.14201Q79.03438 242.06389 78.40938 242.57951Q77.8 243.07951 76.84688 243.07951Q75.6125 243.07951 74.89375 242.18889Q74.05 241.12639 74.05 238.70451ZM75.12813 238.70451Q75.12813 240.81389 75.62813 241.51701Q76.12813 242.22014 76.84688 242.22014Q77.58125 242.22014 78.06563 241.51701Q78.56563 240.81389 78.56563 238.70451Q78.56563 236.57951 78.06563 235.89201Q77.58125 235.18889 76.83125 235.18889Q76.1125 235.18889 75.675 235.79826Q75.12813 236.57951 75.12813 238.70451ZM81.05 238.70451Q81.05 237.17326 81.3625 236.25139Q81.675 235.31389 82.28438 234.81389Q82.90938 234.31389 83.84688 234.31389Q84.53438 234.31389 85.05 234.59514Q85.58125 234.87639 85.925 235.40764Q86.26875 235.92326 86.45625 236.67326Q86.64375 237.42326 86.64375 238.70451Q86.64375 240.22014 86.33125 241.14201Q86.03438 242.06389 85.40938 242.57951Q84.8 243.07951 83.84688 243.07951Q82.6125 243.07951 81.89375 242.18889Q81.05 241.12639 81.05 238.70451ZM82.12813 238.70451Q82.12813 240.81389 82.62813 241.51701Q83.12813 242.22014 83.84688 242.22014Q84.58125 242.22014 85.06563 241.51701Q85.56563 240.81389 85.56563 238.70451Q85.56563 236.57951 85.06563 235.89201Q84.58125 235.18889 83.83125 235.18889Q83.1125 235.18889 82.675 235.79826Q82.12813 236.57951 82.12813 238.70451Z" fill-rule="nonzero"/><path fill="#000000" d="M22.425 149.42778L22.425 147.36528L18.70625 147.36528L18.70625 146.39653L22.628124 140.83403L23.4875 140.83403L23.4875 146.39653L24.64375 146.39653L24.64375 147.36528L23.4875 147.36528L23.4875 149.42778L22.425 149.42778ZM22.425 146.39653L22.425 142.53716L19.7375 146.39653L22.425 146.39653ZM26.05 145.1934Q26.05 143.66216 26.3625 142.74028Q26.675 141.80278 27.284374 141.30278Q27.909374 140.80278 28.846874 140.80278Q29.534374 140.80278 30.05 141.08403Q30.58125 141.36528 30.925 141.89653Q31.26875 142.41216 31.45625 143.16216Q31.64375 143.91216 31.64375 145.1934Q31.64375 146.70903 31.33125 147.6309Q31.034374 148.55278 30.409374 149.0684Q29.8 149.5684 28.846874 149.5684Q27.6125 149.5684 26.89375 148.67778Q26.05 147.61528 26.05 145.1934ZM27.128124 145.1934Q27.128124 147.30278 27.628124 148.0059Q28.128124 148.70903 28.846874 148.70903Q29.58125 148.70903 30.065624 148.0059Q30.565624 147.30278 30.565624 145.1934Q30.565624 143.0684 30.065624 142.3809Q29.58125 141.67778 28.83125 141.67778Q28.1125 141.67778 27.675 142.28716Q27.128124 143.0684 27.128124 145.1934ZM33.05 145.1934Q33.05 143.66216 33.3625 142.74028Q33.675 141.80278 34.284374 141.30278Q34.909374 140.80278 35.846874 140.80278Q36.534374 140.80278 37.05 141.08403Q37.58125 141.36528 37.925 141.89653Q38.26875 142.41216 38.45625 143.16216Q38.64375 143.91216 38.64375 145.1934Q38.64375 146.70903 38.33125 147.6309Q38.034374 148.55278 37.409374 149.0684Q36.8 149.5684 35.846874 149.5684Q34.6125 149.5684 33.89375 148.67778Q33.05 147.61528 33.05 145.1934ZM34.128124 145.1934Q34.128124 147.30278 34.628124 148.0059Q35.128124 148.70903 35.846874 148.70903Q36.58125 148.70903 37.065624 148.0059Q37.565624 147.30278 37.565624 145.1934Q37.565624 143.0684 37.065624 142.3809Q36.58125 141.67778 35.83125 141.67778Q35.1125 141.67778 34.675 142.28716Q34.128124 143.0684 34.128124 145.1934ZM40.6125 149.42778L40.6125 148.22466L41.815624 148.22466L41.815624 149.42778Q41.815624 150.08403 41.58125 150.49028Q41.346874 150.91216 40.846874 151.1309L40.55 150.67778Q40.878124 150.53716 41.034374 150.24028Q41.190624 149.95903 41.221874 149.42778L40.6125 149.42778ZM43.05 145.1934Q43.05 143.66216 43.3625 142.74028Q43.675 141.80278 44.284374 141.30278Q44.909374 140.80278 45.846874 140.80278Q46.534374 140.80278 47.05 141.08403Q47.58125 141.36528 47.925 141.89653Q48.26875 142.41216 48.45625 143.16216Q48.64375 143.91216 48.64375 145.1934Q48.64375 146.70903 48.33125 147.6309Q48.034374 148.55278 47.409374 149.0684Q46.8 149.5684 45.846874 149.5684Q44.6125 149.5684 43.89375 148.67778Q43.05 147.61528 43.05 145.1934ZM44.128124 145.1934Q44.128124 147.30278 44.628124 148.0059Q45.128124 148.70903 45.846874 148.70903Q46.58125 148.70903 47.065624 148.0059Q47.565624 147.30278 47.565624 145.1934Q47.565624 143.0684 47.065624 142.3809Q46.58125 141.67778 45.83125 141.67778Q45.1125 141.67778 44.675 142.28716Q44.128124 143.0684 44.128124 145.1934ZM50.05 145.1934Q50.05 143.66216 50.3625 142.74028Q50.675 141.80278 51.284374 141.30278Q51.909374 140.80278 52.846874 140.80278Q53.534374 140.80278 54.05 141.08403Q54.58125 141.36528 54.925 141.89653Q55.26875 142.41216 55.45625 143.16216Q55.64375 143.91216 55.64375 145.1934Q55.64375 146.70903 55.33125 147.6309Q55.034374 148.55278 54.409374 149.0684Q53.8 149.5684 52.846874 149.5684Q51.6125 149.5684 50.89375 148.67778Q50.05 147.61528 50.05 145.1934ZM51.128124 145.1934Q51.128124 147.30278 51.628124 148.0059Q52.128124 148.70903 52.846874 148.70903Q53.58125 148.70903 54.065624 148.0059Q54.565624 147.30278 54.565624 145.1934Q54.565624 143.0684 54.065624 142.3809Q53.58125 141.67778 52.83125 141.67778Q52.1125 141.67778 51.675 142.28716Q51.128124 143.0684 51.128124 145.1934ZM57.05 145.1934Q57.05 143.66216 57.3625 142.74028Q57.675 141.80278 58.284374 141.30278Q58.909374 140.80278 59.846874 140.80278Q60.534374 140.80278 61.05 141.08403Q61.58125 141.36528 61.925 141.89653Q62.26875 142.41216 62.45625 143.16216Q62.64375 143.91216 62.64375 145.1934Q62.64375 146.70903 62.33125 147.6309Q62.034374 148.55278 61.409374 149.0684Q60.8 149.5684 59.846874 149.5684Q58.6125 149.5684 57.89375 148.67778Q57.05 147.61528 57.05 145.1934ZM58.128124 145.1934Q58.128124 147.30278 58.628124 148.0059Q59.128124 148.70903 59.846874 148.70903Q60.58125 148.70903 61.065624 148.0059Q61.565624 147.30278 61.565624 145.1934Q61.565624 143.0684 61.065624 142.3809Q60.58125 141.67778 59.83125 141.67778Q59.1125 141.67778 58.675 142.28716Q58.128124 143.0684 58.128124 145.1934ZM64.6125 149.42778L64.6125 148.22466L65.81563 148.22466L65.81563 149.42778Q65.81563 150.08403 65.58125 150.49028Q65.34688 150.91216 64.84688 151.1309L64.55 150.67778Q64.87813 150.53716 65.03438 150.24028Q65.19063 149.95903 65.22188 149.42778L64.6125 149.42778ZM67.05 145.1934Q67.05 143.66216 67.3625 142.74028Q67.675 141.80278 68.28438 141.30278Q68.90938 140.80278 69.84688 140.80278Q70.53438 140.80278 71.05 141.08403Q71.58125 141.36528 71.925 141.89653Q72.26875 142.41216 72.45625 143.16216Q72.64375 143.91216 72.64375 145.1934Q72.64375 146.70903 72.33125 147.6309Q72.03438 148.55278 71.40938 149.0684Q70.8 149.5684 69.84688 149.5684Q68.6125 149.5684 67.89375 148.67778Q67.05 147.61528 67.05 145.1934ZM68.12813 145.1934Q68.12813 147.30278 68.62813 148.0059Q69.12813 148.70903 69.84688 148.70903Q70.58125 148.70903 71.06563 148.0059Q71.56563 147.30278 71.56563 145.1934Q71.56563 143.0684 71.06563 142.3809Q70.58125 141.67778 69.83125 141.67778Q69.1125 141.67778 68.675 142.28716Q68.12813 143.0684 68.12813 145.1934ZM74.05 145.1934Q74.05 143.66216 74.3625 142.74028Q74.675 141.80278 75.28438 141.30278Q75.90938 140.80278 76.84688 140.80278Q77.53438 140.80278 78.05 141.08403Q78.58125 141.36528 78.925 141.89653Q79.26875 142.41216 79.45625 143.16216Q79.64375 143.91216 79.64375 145.1934Q79.64375 146.70903 79.33125 147.6309Q79.03438 148.55278 78.40938 149.0684Q77.8 149.5684 76.84688 149.5684Q75.6125 149.5684 74.89375 148.67778Q74.05 147.61528 74.05 145.1934ZM75.12813 145.1934Q75.12813 147.30278 75.62813 148.0059Q76.12813 148.70903 76.84688 148.70903Q77.58125 148.70903 78.06563 148.0059Q78.56563 147.30278 78.56563 145.1934Q78.56563 143.0684 78.06563 142.3809Q77.58125 141.67778 76.83125 141.67778Q76.1125 141.67778 75.675 142.28716Q75.12813 143.0684 75.12813 145.1934ZM81.05 145.1934Q81.05 143.66216 81.3625 142.74028Q81.675 141.80278 82.28438 141.30278Q82.90938 140.80278 83.84688 140.80278Q84.53438 140.80278 85.05 141.08403Q85.58125 141.36528 85.925 141.89653Q86.26875 142.41216 86.45625 143.16216Q86.64375 143.91216 86.64375 145.1934Q86.64375 146.70903 86.33125 147.6309Q86.03438 148.55278 85.40938 149.0684Q84.8 149.5684 83.84688 149.5684Q82.6125 149.5684 81.89375 148.67778Q81.05 147.61528 81.05 145.1934ZM82.12813 145.1934Q82.12813 147.30278 82.62813 148.0059Q83.12813 148.70903 83.84688 148.70903Q84.58125 148.70903 85.06563 148.0059Q85.56563 147.30278 85.56563 145.1934Q85.56563 143.0684 85.06563 142.3809Q84.58125 141.67778 83.83125 141.67778Q83.1125 141.67778 82.675 142.28716Q82.12813 143.0684 82.12813 145.1934Z" fill-rule="nonzero"/><path fill="#000000" d="M24.51875 49.432293L23.471874 49.510418Q23.33125 48.885418 23.08125 48.604168Q22.64375 48.151043 22.01875 48.151043Q21.51875 48.151043 21.128124 48.432293Q20.64375 48.807293 20.346874 49.510418Q20.065624 50.197918 20.05 51.479168Q20.425 50.901043 20.971874 50.619793Q21.534374 50.338543 22.14375 50.338543Q23.190624 50.338543 23.925 51.119793Q24.675 51.901043 24.675 53.119793Q24.675 53.932293 24.315624 54.635418Q23.971874 55.322918 23.3625 55.697918Q22.753124 56.057293 21.9875 56.057293Q20.659374 56.057293 19.83125 55.088543Q19.003124 54.119793 19.003124 51.901043Q19.003124 49.401043 19.925 48.276043Q20.721874 47.291668 22.08125 47.291668Q23.096874 47.291668 23.7375 47.869793Q24.39375 48.432293 24.51875 49.432293ZM20.221874 53.135418Q20.221874 53.682293 20.440624 54.182293Q20.675 54.666668 21.08125 54.932293Q21.503124 55.197918 21.971874 55.197918Q22.628124 55.197918 23.1125 54.666668Q23.596874 54.119793 23.596874 53.197918Q23.596874 52.307293 23.1125 51.791668Q22.64375 51.276043 21.925 51.276043Q21.20625 51.276043 20.70625 51.791668Q20.221874 52.307293 20.221874 53.135418ZM26.05 51.682293Q26.05 50.151043 26.3625 49.229168Q26.675 48.291668 27.284374 47.791668Q27.909374 47.291668 28.846874 47.291668Q29.534374 47.291668 30.05 47.572918Q30.58125 47.854168 30.925 48.385418Q31.26875 48.901043 31.45625 49.651043Q31.64375 50.401043 31.64375 51.682293Q31.64375 53.197918 31.33125 54.119793Q31.034374 55.041668 30.409374 55.557293Q29.8 56.057293 28.846874 56.057293Q27.6125 56.057293 26.89375 55.166668Q26.05 54.104168 26.05 51.682293ZM27.128124 51.682293Q27.128124 53.791668 27.628124 54.494793Q28.128124 55.197918 28.846874 55.197918Q29.58125 55.197918 30.065624 54.494793Q30.565624 53.791668 30.565624 51.682293Q30.565624 49.557293 30.065624 48.869793Q29.58125 48.166668 28.83125 48.166668Q28.1125 48.166668 27.675 48.776043Q27.128124 49.557293 27.128124 51.682293ZM33.05 51.682293Q33.05 50.151043 33.3625 49.229168Q33.675 48.291668 34.284374 47.791668Q34.909374 47.291668 35.846874 47.291668Q36.534374 47.291668 37.05 47.572918Q37.58125 47.854168 37.925 48.385418Q38.26875 48.901043 38.45625 49.651043Q38.64375 50.401043 38.64375 51.682293Q38.64375 53.197918 38.33125 54.119793Q38.034374 55.041668 37.409374 55.557293Q36.8 56.057293 35.846874 56.057293Q34.6125 56.057293 33.89375 55.166668Q33.05 54.104168 33.05 51.682293ZM34.128124 51.682293Q34.128124 53.791668 34.628124 54.494793Q35.128124 55.197918 35.846874 55.197918Q36.58125 55.197918 37.065624 54.494793Q37.565624 53.791668 37.565624 51.682293Q37.565624 49.557293 37.065624 48.869793Q36.58125 48.166668 35.83125 48.166668Q35.1125 48.166668 34.675 48.776043Q34.128124 49.557293 34.128124 51.682293ZM40.6125 55.916668L40.6125 54.713543L41.815624 54.713543L41.815624 55.916668Q41.815624 56.572918 41.58125 56.979168Q41.346874 57.401043 40.846874 57.619793L40.55 57.166668Q40.878124 57.026043 41.034374 56.729168Q41.190624 56.447918 41.221874 55.916668L40.6125 55.916668ZM43.05 51.682293Q43.05 50.151043 43.3625 49.229168Q43.675 48.291668 44.284374 47.791668Q44.909374 47.291668 45.846874 47.291668Q46.534374 47.291668 47.05 47.572918Q47.58125 47.854168 47.925 48.385418Q48.26875 48.901043 48.45625 49.651043Q48.64375 50.401043 48.64375 51.682293Q48.64375 53.197918 48.33125 54.119793Q48.034374 55.041668 47.409374 55.557293Q46.8 56.057293 45.846874 56.057293Q44.6125 56.057293 43.89375 55.166668Q43.05 54.104168 43.05 51.682293ZM44.128124 51.682293Q44.128124 53.791668 44.628124 54.494793Q45.128124 55.197918 45.846874 55.197918Q46.58125 55.197918 47.065624 54.494793Q47.565624 53.791668 47.565624 51.682293Q47.565624 49.557293 47.065624 48.869793Q46.58125 48.166668 45.83125 48.166668Q45.1125 48.166668 44.675 48.776043Q44.128124 49.557293 44.128124 51.682293ZM50.05 51.682293Q50.05 50.151043 50.3625 49.229168Q50.675 48.291668 51.284374 47.791668Q51.909374 47.291668 52.846874 47.291668Q53.534374 47.291668 54.05 47.572918Q54.58125 47.854168 54.925 48.385418Q55.26875 48.901043 55.45625 49.651043Q55.64375 50.401043 55.64375 51.682293Q55.64375 53.197918 55.33125 54.119793Q55.034374 55.041668 54.409374 55.557293Q53.8 56.057293 52.846874 56.057293Q51.6125 56.057293 50.89375 55.166668Q50.05 54.104168 50.05 51.682293ZM51.128124 51.682293Q51.128124 53.791668 51.628124 54.494793Q52.128124 55.197918 52.846874 55.197918Q53.58125 55.197918 54.065624 54.494793Q54.565624 53.791668 54.565624 51.682293Q54.565624 49.557293 54.065624 48.869793Q53.58125 48.166668 52.83125 48.166668Q52.1125 48.166668 51.675 48.776043Q51.128124 49.557293 51.128124 51.682293ZM57.05 51.682293Q57.05 50.151043 57.3625 49.229168Q57.675 48.291668 58.284374 47.791668Q58.909374 47.291668 59.846874 47.291668Q60.534374 47.291668 61.05 47.572918Q61.58125 47.854168 61.925 48.385418Q62.26875 48.901043 62.45625 49.651043Q62.64375 50.401043 62.64375 51.682293Q62.64375 53.197918 62.33125 54.119793Q62.034374 55.041668 61.409374 55.557293Q60.8 56.057293 59.846874 56.057293Q58.6125 56.057293 57.89375 55.166668Q57.05 54.104168 57.05 51.682293ZM58.128124 51.682293Q58.128124 53.791668 58.628124 54.494793Q59.128124 55.197918 59.846874 55.197918Q60.58125 55.197918 61.065624 54.494793Q61.565624 53.791668 61.565624 51.682293Q61.565624 49.557293 61.065624 48.869793Q60.58125 48.166668 59.83125 48.166668Q59.1125 48.166668 58.675 48.776043Q58.128124 49.557293 58.128124 51.682293ZM64.6125 55.916668L64.6125 54.713543L65.81563 54.713543L65.81563 55.916668Q65.81563 56.572918 65.58125 56.979168Q65.34688 57.401043 64.84688 57.619793L64.55 57.166668Q64.87813 57.026043 65.03438 56.729168Q65.19063 56.447918 65.22188 55.916668L64.6125 55.916668ZM67.05 51.682293Q67.05 50.151043 67.3625 49.229168Q67.675 48.291668 68.28438 47.791668Q68.90938 47.291668 69.84688 47.291668Q70.53438 47.291668 71.05 47.572918Q71.58125 47.854168 71.925 48.385418Q72.26875 48.901043 72.45625 49.651043Q72.64375 50.401043 72.64375 51.682293Q72.64375 53.197918 72.33125 54.119793Q72.03438 55.041668 71.40938 55.557293Q70.8 56.057293 69.84688 56.057293Q68.6125 56.057293 67.89375 55.166668Q67.05 54.104168 67.05 51.682293ZM68.12813 51.682293Q68.12813 53.791668 68.62813 54.494793Q69.12813 55.197918 69.84688 55.197918Q70.58125 55.197918 71.06563 54.494793Q71.56563 53.791668 71.56563 51.682293Q71.56563 49.557293 71.06563 48.869793Q70.58125 48.166668 69.83125 48.166668Q69.1125 48.166668 68.675 48.776043Q68.12813 49.557293 68.12813 51.682293ZM74.05 51.682293Q74.05 50.151043 74.3625 49.229168Q74.675 48.291668 75.28438 47.791668Q75.90938 47.291668 76.84688 47.291668Q77.53438 47.291668 78.05 47.572918Q78.58125 47.854168 78.925 48.385418Q79.26875 48.901043 79.45625 49.651043Q79.64375 50.401043 79.64375 51.682293Q79.64375 53.197918 79.33125 54.119793Q79.03438 55.041668 78.40938 55.557293Q77.8 56.057293 76.84688 56.057293Q75.6125 56.057293 74.89375 55.166668Q74.05 54.104168 74.05 51.682293ZM75.12813 51.682293Q75.12813 53.791668 75.62813 54.494793Q76.12813 55.197918 76.84688 55.197918Q77.58125 55.197918 78.06563 54.494793Q78.56563 53.791668 78.56563 51.682293Q78.56563 49.557293 78.06563 48.869793Q77.58125 48.166668 76.83125 48.166668Q76.1125 48.166668 75.675 48.776043Q75.12813 49.557293 75.12813 51.682293ZM81.05 51.682293Q81.05 50.151043 81.3625 49.229168Q81.675 48.291668 82.28438 47.791668Q82.90938 47.291668 83.84688 47.291668Q84.53438 47.291668 85.05 47.572918Q85.58125 47.854168 85.925 48.385418Q86.26875 48.901043 86.45625 49.651043Q86.64375 50.401043 86.64375 51.682293Q86.64375 53.197918 86.33125 54.119793Q86.03438 55.041668 85.40938 55.557293Q84.8 56.057293 83.84688 56.057293Q82.6125 56.057293 81.89375 55.166668Q81.05 54.104168 81.05 51.682293ZM82.12813 51.682293Q82.12813 53.791668 82.62813 54.494793Q83.12813 55.197918 83.84688 55.197918Q84.58125 55.197918 85.06563 54.494793Q85.56563 53.791668 85.56563 51.682293Q85.56563 49.557293 85.06563 48.869793Q84.58125 48.166668 83.83125 48.166668Q83.1125 48.166668 82.675 48.776043Q82.12813 49.557293 82.12813 51.682293Z" fill-rule="nonzero"/><path fill="#000000" d="M90.55 347.2L91.65938 347.10626Q91.78438 347.91876 92.22188 348.325Q92.675 348.73126 93.31563 348.73126Q94.06563 348.73126 94.59688 348.15314Q95.12813 347.575 95.12813 346.6375Q95.12813 345.73126 94.6125 345.21564Q94.1125 344.6844 93.28438 344.6844Q92.78438 344.6844 92.3625 344.91876Q91.95625 345.15314 91.72188 345.5125L90.7375 345.3875L91.56563 340.98126L95.84688 340.98126L95.84688 341.98126L92.40938 341.98126L91.95625 344.29376Q92.72188 343.7469 93.56563 343.7469Q94.69063 343.7469 95.45625 344.52814Q96.2375 345.3094 96.2375 346.54376Q96.2375 347.7 95.56563 348.5594Q94.7375 349.59064 93.31563 349.59064Q92.14375 349.59064 91.39375 348.9344Q90.65938 348.27814 90.55 347.2Z" fill-rule="nonzero"/><path fill="#000000" d="M253.65208 349.45L252.60521 349.45L252.60521 342.73126Q252.21458 343.09064 251.58958 343.46564Q250.98021 343.825 250.49583 343.9969L250.49583 342.98126Q251.37083 342.5594 252.02708 341.98126Q252.69896 341.3875 252.98021 340.825L253.65208 340.825L253.65208 349.45ZM256.68335 345.21564Q256.68335 343.6844 256.99585 342.7625Q257.30835 341.825 257.91772 341.325Q258.54272 340.825 259.48022 340.825Q260.16772 340.825 260.68335 341.10626Q261.2146 341.3875 261.55835 341.91876Q261.9021 342.4344 262.0896 343.1844Q262.2771 343.9344 262.2771 345.21564Q262.2771 346.73126 261.9646 347.65314Q261.66772 348.575 261.04272 349.09064Q260.43335 349.59064 259.48022 349.59064Q258.24585 349.59064 257.5271 348.7Q256.68335 347.6375 256.68335 345.21564ZM257.76147 345.21564Q257.76147 347.325 258.26147 348.02814Q258.76147 348.73126 259.48022 348.73126Q260.2146 348.73126 260.69897 348.02814Q261.19897 347.325 261.19897 345.21564Q261.19897 343.09064 260.69897 342.40314Q260.2146 341.7 259.4646 341.7Q258.74585 341.7 258.30835 342.3094Q257.76147 343.09064 257.76147 345.21564Z" fill-rule="nonzero"/><path fill="#000000" d="M416.28543 349.45L415.23856 349.45L415.23856 342.73126Q414.84793 343.09064 414.22293 343.46564Q413.61356 343.825 413.12918 343.9969L413.12918 342.98126Q414.00418 342.5594 414.66043 341.98126Q415.3323 341.3875 415.61356 340.825L416.28543 340.825L416.28543 349.45ZM419.31668 347.2L420.42606 347.10626Q420.55106 347.91876 420.98856 348.325Q421.44168 348.73126 422.0823 348.73126Q422.8323 348.73126 423.36356 348.15314Q423.8948 347.575 423.8948 346.6375Q423.8948 345.73126 423.37918 345.21564Q422.87918 344.6844 422.05106 344.6844Q421.55106 344.6844 421.12918 344.91876Q420.72293 345.15314 420.48856 345.5125L419.50418 345.3875L420.3323 340.98126L424.61356 340.98126L424.61356 341.98126L421.17606 341.98126L420.72293 344.29376Q421.48856 343.7469 422.3323 343.7469Q423.4573 343.7469 424.22293 344.52814Q425.00418 345.3094 425.00418 346.54376Q425.00418 347.7 424.3323 348.5594Q423.50418 349.59064 422.0823 349.59064Q420.91043 349.59064 420.16043 348.9344Q419.42606 348.27814 419.31668 347.2Z" fill-rule="nonzero"/><path fill="#000000" d="M580.4969 348.4344L580.4969 349.45L574.8094 349.45Q574.8094 349.075 574.9344 348.71564Q575.15314 348.1375 575.6219 347.575Q576.10626 347.0125 577.0125 346.27814Q578.41876 345.1219 578.90314 344.45Q579.40314 343.77814 579.40314 343.1844Q579.40314 342.5594 578.95 342.1375Q578.4969 341.7 577.77814 341.7Q577.0125 341.7 576.5594 342.15314Q576.10626 342.60626 576.09064 343.41876L575.0125 343.3094Q575.1219 342.09064 575.84064 341.46564Q576.575 340.825 577.8094 340.825Q579.04376 340.825 579.7625 341.5125Q580.48126 342.2 580.48126 343.21564Q580.48126 343.73126 580.2625 344.23126Q580.0594 344.71564 579.5594 345.27814Q579.075 345.825 577.95 346.77814Q576.9969 347.575 576.71564 347.8719Q576.45 348.15314 576.27814 348.4344L580.4969 348.4344ZM581.95 345.21564Q581.95 343.6844 582.2625 342.7625Q582.575 341.825 583.1844 341.325Q583.8094 340.825 584.7469 340.825Q585.4344 340.825 585.95 341.10626Q586.48126 341.3875 586.825 341.91876Q587.16876 342.4344 587.35626 343.1844Q587.54376 343.9344 587.54376 345.21564Q587.54376 346.73126 587.23126 347.65314Q586.9344 348.575 586.3094 349.09064Q585.7 349.59064 584.7469 349.59064Q583.5125 349.59064 582.79376 348.7Q581.95 347.6375 581.95 345.21564ZM583.02814 345.21564Q583.02814 347.325 583.52814 348.02814Q584.02814 348.73126 584.7469 348.73126Q585.48126 348.73126 585.96564 348.02814Q586.46564 347.325 586.46564 345.21564Q586.46564 343.09064 585.96564 342.40314Q585.48126 341.7 584.73126 341.7Q584.0125 341.7 583.575 342.3094Q583.02814 343.09064 583.02814 345.21564Z" fill-rule="nonzero"/><path stroke="#ff0000" stroke-width="4.0" stroke-linecap="butt" stroke-dasharray="13.0,9.0" d="M135.0 25.55L170.0 25.55" fill-rule="nonzero"/><path fill="#1a1a1a" d="M178.79688 31.940624L178.79688 23.33125L179.75 23.33125L179.75 24.128124Q180.09375 23.659374 180.51562 23.425Q180.95312 23.190624 181.5625 23.190624Q182.35938 23.190624 182.96875 23.596874Q183.57812 24.003124 183.875 24.753124Q184.1875 25.503124 184.1875 26.39375Q184.1875 27.346874 183.84375 28.1125Q183.51562 28.878124 182.85938 29.284374Q182.20312 29.690624 181.48438 29.690624Q180.95312 29.690624 180.53125 29.471874Q180.10938 29.2375 179.84375 28.909374L179.84375 31.940624L178.79688 31.940624ZM179.75 26.471874Q179.75 27.675 180.23438 28.253124Q180.71875 28.815624 181.40625 28.815624Q182.10938 28.815624 182.60938 28.221874Q183.10938 27.628124 183.10938 26.378124Q183.10938 25.190624 182.625 24.6125Q182.14062 24.01875 181.45312 24.01875Q180.78125 24.01875 180.26562 24.64375Q179.75 25.26875 179.75 26.471874ZM184.8125 31.940624L184.8125 31.175L191.8125 31.175L191.8125 31.940624L184.8125 31.940624ZM192.79688 29.55L192.79688 20.95625L193.84375 20.95625L193.84375 24.034374Q194.57812 23.190624 195.70312 23.190624Q196.40625 23.190624 196.90625 23.471874Q197.42188 23.7375 197.64062 24.221874Q197.85938 24.690624 197.85938 25.6125L197.85938 29.55L196.8125 29.55L196.8125 25.6125Q196.8125 24.815624 196.46875 24.45625Q196.125 24.096874 195.5 24.096874Q195.03125 24.096874 194.60938 24.346874Q194.20312 24.58125 194.01562 25.003124Q193.84375 25.409374 193.84375 26.14375L193.84375 29.55L192.79688 29.55ZM204.04688 27.55L205.14062 27.675Q204.89062 28.628124 204.1875 29.159374Q203.48438 29.690624 202.40625 29.690624Q201.04688 29.690624 200.23438 28.846874Q199.4375 28.003124 199.4375 26.4875Q199.4375 24.925 200.25 24.065624Q201.0625 23.190624 202.34375 23.190624Q203.59375 23.190624 204.375 24.034374Q205.17188 24.878124 205.17188 26.425Q205.17188 26.51875 205.17188 26.70625L200.53125 26.70625Q200.59375 27.7375 201.10938 28.284374Q201.625 28.815624 202.40625 28.815624Q202.98438 28.815624 203.39062 28.51875Q203.8125 28.20625 204.04688 27.55ZM200.59375 25.846874L204.0625 25.846874Q204.0 25.05 203.67188 24.659374Q203.15625 24.05 202.35938 24.05Q201.625 24.05 201.125 24.534374Q200.64062 25.01875 200.59375 25.846874ZM210.85938 28.784374Q210.26562 29.284374 209.71875 29.4875Q209.1875 29.690624 208.5625 29.690624Q207.53125 29.690624 206.98438 29.190624Q206.4375 28.690624 206.4375 27.909374Q206.4375 27.45625 206.64062 27.08125Q206.84375 26.690624 207.1875 26.471874Q207.53125 26.2375 207.95312 26.128124Q208.25 26.034374 208.89062 25.95625Q210.15625 25.815624 210.76562 25.596874Q210.76562 25.378124 210.76562 25.33125Q210.76562 24.675 210.46875 24.409374Q210.0625 24.065624 209.26562 24.065624Q208.53125 24.065624 208.17188 24.33125Q207.8125 24.58125 207.64062 25.2375L206.60938 25.096874Q206.75 24.440624 207.07812 24.034374Q207.40625 23.628124 208.01562 23.409374Q208.625 23.190624 209.42188 23.190624Q210.21875 23.190624 210.71875 23.378124Q211.21875 23.565624 211.45312 23.846874Q211.6875 24.128124 211.78125 24.565624Q211.82812 24.83125 211.82812 25.534374L211.82812 26.940624Q211.82812 28.409374 211.89062 28.8Q211.96875 29.190624 212.17188 29.55L211.0625 29.55Q210.90625 29.221874 210.85938 28.784374ZM210.76562 26.425Q210.1875 26.659374 209.04688 26.83125Q208.39062 26.925 208.125 27.05Q207.85938 27.159374 207.70312 27.378124Q207.5625 27.596874 207.5625 27.878124Q207.5625 28.3 207.875 28.58125Q208.20312 28.8625 208.8125 28.8625Q209.42188 28.8625 209.89062 28.596874Q210.375 28.33125 210.59375 27.8625Q210.76562 27.503124 210.76562 26.815624L210.76562 26.425ZM213.79688 31.940624L213.79688 23.33125L214.75 23.33125L214.75 24.128124Q215.09375 23.659374 215.51562 23.425Q215.95312 23.190624 216.5625 23.190624Q217.35938 23.190624 217.96875 23.596874Q218.57812 24.003124 218.875 24.753124Q219.1875 25.503124 219.1875 26.39375Q219.1875 27.346874 218.84375 28.1125Q218.51562 28.878124 217.85938 29.284374Q217.20312 29.690624 216.48438 29.690624Q215.95312 29.690624 215.53125 29.471874Q215.10938 29.2375 214.84375 28.909374L214.84375 31.940624L213.79688 31.940624ZM214.75 26.471874Q214.75 27.675 215.23438 28.253124Q215.71875 28.815624 216.40625 28.815624Q217.10938 28.815624 217.60938 28.221874Q218.10938 27.628124 218.10938 26.378124Q218.10938 25.190624 217.625 24.6125Q217.14062 24.01875 216.45312 24.01875Q215.78125 24.01875 215.26562 24.64375Q214.75 25.26875 214.75 26.471874Z" fill-rule="nonzero"/><path stroke="#ea4335" stroke-width="4.0" stroke-linecap="butt" d="M236.0 25.55L248.0 25.55" fill-rule="nonzero"/><path fill="#1a1a1a" d="M256.79688 31.940624L256.79688 23.33125L257.75 23.33125L257.75 24.128124Q258.09375 23.659374 258.51562 23.425Q258.95312 23.190624 259.5625 23.190624Q260.35938 23.190624 260.96875 23.596874Q261.57812 24.003124 261.875 24.753124Q262.1875 25.503124 262.1875 26.39375Q262.1875 27.346874 261.84375 28.1125Q261.51562 28.878124 260.85938 29.284374Q260.20312 29.690624 259.48438 29.690624Q258.95312 29.690624 258.53125 29.471874Q258.10938 29.2375 257.84375 28.909374L257.84375 31.940624L256.79688 31.940624ZM257.75 26.471874Q257.75 27.675 258.23438 28.253124Q258.71875 28.815624 259.40625 28.815624Q260.10938 28.815624 260.60938 28.221874Q261.10938 27.628124 261.10938 26.378124Q261.10938 25.190624 260.625 24.6125Q260.14062 24.01875 259.45312 24.01875Q258.78125 24.01875 258.26562 24.64375Q257.75 25.26875 257.75 26.471874ZM262.8125 31.940624L262.8125 31.175L269.8125 31.175L269.8125 31.940624L262.8125 31.940624ZM270.79688 31.940624L270.79688 23.33125L271.75 23.33125L271.75 24.128124Q272.09375 23.659374 272.51562 23.425Q272.95312 23.190624 273.5625 23.190624Q274.35938 23.190624 274.96875 23.596874Q275.57812 24.003124 275.875 24.753124Q276.1875 25.503124 276.1875 26.39375Q276.1875 27.346874 275.84375 28.1125Q275.51562 28.878124 274.85938 29.284374Q274.20312 29.690624 273.48438 29.690624Q272.95312 29.690624 272.53125 29.471874Q272.10938 29.2375 271.84375 28.909374L271.84375 31.940624L270.79688 31.940624ZM271.75 26.471874Q271.75 27.675 272.23438 28.253124Q272.71875 28.815624 273.40625 28.815624Q274.10938 28.815624 274.60938 28.221874Q275.10938 27.628124 275.10938 26.378124Q275.10938 25.190624 274.625 24.6125Q274.14062 24.01875 273.45312 24.01875Q272.78125 24.01875 272.26562 24.64375Q271.75 25.26875 271.75 26.471874ZM277.78125 29.55L277.78125 23.33125L278.73438 23.33125L278.73438 24.26875Q279.09375 23.6125 279.39062 23.409374Q279.70312 23.190624 280.07812 23.190624Q280.60938 23.190624 281.15625 23.51875L280.79688 24.503124Q280.40625 24.26875 280.03125 24.26875Q279.67188 24.26875 279.39062 24.4875Q279.125 24.690624 279.01562 25.065624Q278.82812 25.628124 278.82812 26.284374L278.82812 29.55L277.78125 29.55ZM281.40625 26.440624Q281.40625 24.70625 282.35938 23.878124Q283.15625 23.190624 284.3125 23.190624Q285.59375 23.190624 286.40625 24.034374Q287.23438 24.8625 287.23438 26.346874Q287.23438 27.55 286.875 28.2375Q286.51562 28.925 285.8125 29.315624Q285.125 29.690624 284.3125 29.690624Q283.01562 29.690624 282.20312 28.8625Q281.40625 28.01875 281.40625 26.440624ZM282.48438 26.440624Q282.48438 27.628124 283.0 28.221874Q283.53125 28.815624 284.3125 28.815624Q285.10938 28.815624 285.625 28.221874Q286.14062 27.628124 286.14062 26.409374Q286.14062 25.253124 285.60938 24.659374Q285.09375 24.065624 284.3125 24.065624Q283.53125 24.065624 283.0 24.659374Q282.48438 25.2375 282.48438 26.440624ZM292.85938 27.26875L293.89062 27.409374Q293.71875 28.471874 293.01562 29.08125Q292.3125 29.690624 291.29688 29.690624Q290.01562 29.690624 289.23438 28.8625Q288.46875 28.01875 288.46875 26.45625Q288.46875 25.45625 288.79688 24.70625Q289.14062 23.940624 289.8125 23.565624Q290.5 23.190624 291.3125 23.190624Q292.3125 23.190624 292.95312 23.70625Q293.60938 24.20625 293.79688 25.159374L292.76562 25.315624Q292.625 24.690624 292.25 24.378124Q291.875 24.05 291.34375 24.05Q290.54688 24.05 290.04688 24.628124Q289.54688 25.190624 289.54688 26.425Q289.54688 27.690624 290.03125 28.253124Q290.51562 28.815624 291.28125 28.815624Q291.90625 28.815624 292.3125 28.440624Q292.73438 28.065624 292.85938 27.26875Z" fill-rule="nonzero"/><path stroke="#34a853" stroke-width="4.0" stroke-linecap="butt" stroke-dasharray="13.0,9.0" d="M310.0 25.55L345.0 25.55" fill-rule="nonzero"/><path fill="#1a1a1a" d="M355.51562 29.55L353.15625 23.33125L354.26562 23.33125L355.60938 27.05Q355.8125 27.659374 356.0 28.3Q356.14062 27.815624 356.39062 27.128124L357.78125 23.33125L358.85938 23.33125L356.5 29.55L355.51562 29.55ZM357.8125 31.940624L357.8125 31.175L364.8125 31.175L364.8125 31.940624L357.8125 31.940624ZM365.79688 29.55L365.79688 20.95625L366.84375 20.95625L366.84375 24.034374Q367.57812 23.190624 368.70312 23.190624Q369.40625 23.190624 369.90625 23.471874Q370.42188 23.7375 370.64062 24.221874Q370.85938 24.690624 370.85938 25.6125L370.85938 29.55L369.8125 29.55L369.8125 25.6125Q369.8125 24.815624 369.46875 24.45625Q369.125 24.096874 368.5 24.096874Q368.03125 24.096874 367.60938 24.346874Q367.20312 24.58125 367.01562 25.003124Q366.84375 25.409374 366.84375 26.14375L366.84375 29.55L365.79688 29.55ZM377.04688 27.55L378.14062 27.675Q377.89062 28.628124 377.1875 29.159374Q376.48438 29.690624 375.40625 29.690624Q374.04688 29.690624 373.23438 28.846874Q372.4375 28.003124 372.4375 26.4875Q372.4375 24.925 373.25 24.065624Q374.0625 23.190624 375.34375 23.190624Q376.59375 23.190624 377.375 24.034374Q378.17188 24.878124 378.17188 26.425Q378.17188 26.51875 378.17188 26.70625L373.53125 26.70625Q373.59375 27.7375 374.10938 28.284374Q374.625 28.815624 375.40625 28.815624Q375.98438 28.815624 376.39062 28.51875Q376.8125 28.20625 377.04688 27.55ZM373.59375 25.846874L377.0625 25.846874Q377.0 25.05 376.67188 24.659374Q376.15625 24.05 375.35938 24.05Q374.625 24.05 374.125 24.534374Q373.64062 25.01875 373.59375 25.846874ZM383.85938 28.784374Q383.26562 29.284374 382.71875 29.4875Q382.1875 29.690624 381.5625 29.690624Q380.53125 29.690624 379.98438 29.190624Q379.4375 28.690624 379.4375 27.909374Q379.4375 27.45625 379.64062 27.08125Q379.84375 26.690624 380.1875 26.471874Q380.53125 26.2375 380.95312 26.128124Q381.25 26.034374 381.89062 25.95625Q383.15625 25.815624 383.76562 25.596874Q383.76562 25.378124 383.76562 25.33125Q383.76562 24.675 383.46875 24.409374Q383.0625 24.065624 382.26562 24.065624Q381.53125 24.065624 381.17188 24.33125Q380.8125 24.58125 380.64062 25.2375L379.60938 25.096874Q379.75 24.440624 380.07812 24.034374Q380.40625 23.628124 381.01562 23.409374Q381.625 23.190624 382.42188 23.190624Q383.21875 23.190624 383.71875 23.378124Q384.21875 23.565624 384.45312 23.846874Q384.6875 24.128124 384.78125 24.565624Q384.82812 24.83125 384.82812 25.534374L384.82812 26.940624Q384.82812 28.409374 384.89062 28.8Q384.96875 29.190624 385.17188 29.55L384.0625 29.55Q383.90625 29.221874 383.85938 28.784374ZM383.76562 26.425Q383.1875 26.659374 382.04688 26.83125Q381.39062 26.925 381.125 27.05Q380.85938 27.159374 380.70312 27.378124Q380.5625 27.596874 380.5625 27.878124Q380.5625 28.3 380.875 28.58125Q381.20312 28.8625 381.8125 28.8625Q382.42188 28.8625 382.89062 28.596874Q383.375 28.33125 383.59375 27.8625Q383.76562 27.503124 383.76562 26.815624L383.76562 26.425ZM386.79688 31.940624L386.79688 23.33125L387.75 23.33125L387.75 24.128124Q388.09375 23.659374 388.51562 23.425Q388.95312 23.190624 389.5625 23.190624Q390.35938 23.190624 390.96875 23.596874Q391.57812 24.003124 391.875 24.753124Q392.1875 25.503124 392.1875 26.39375Q392.1875 27.346874 391.84375 28.1125Q391.51562 28.878124 390.85938 29.284374Q390.20312 29.690624 389.48438 29.690624Q388.95312 29.690624 388.53125 29.471874Q388.10938 29.2375 387.84375 28.909374L387.84375 31.940624L386.79688 31.940624ZM387.75 26.471874Q387.75 27.675 388.23438 28.253124Q388.71875 28.815624 389.40625 28.815624Q390.10938 28.815624 390.60938 28.221874Q391.10938 27.628124 391.10938 26.378124Q391.10938 25.190624 390.625 24.6125Q390.14062 24.01875 389.45312 24.01875Q388.78125 24.01875 388.26562 24.64375Q387.75 25.26875 387.75 26.471874Z" fill-rule="nonzero"/><path stroke="#34a853" stroke-width="4.0" stroke-linecap="butt" d="M409.0 25.55L421.0 25.55" fill-rule="nonzero"/><path fill="#1a1a1a" d="M431.51562 29.55L429.15625 23.33125L430.26562 23.33125L431.60938 27.05Q431.8125 27.659374 432.0 28.3Q432.14062 27.815624 432.39062 27.128124L433.78125 23.33125L434.85938 23.33125L432.5 29.55L431.51562 29.55ZM433.8125 31.940624L433.8125 31.175L440.8125 31.175L440.8125 31.940624L433.8125 31.940624ZM441.79688 31.940624L441.79688 23.33125L442.75 23.33125L442.75 24.128124Q443.09375 23.659374 443.51562 23.425Q443.95312 23.190624 444.5625 23.190624Q445.35938 23.190624 445.96875 23.596874Q446.57812 24.003124 446.875 24.753124Q447.1875 25.503124 447.1875 26.39375Q447.1875 27.346874 446.84375 28.1125Q446.51562 28.878124 445.85938 29.284374Q445.20312 29.690624 444.48438 29.690624Q443.95312 29.690624 443.53125 29.471874Q443.10938 29.2375 442.84375 28.909374L442.84375 31.940624L441.79688 31.940624ZM442.75 26.471874Q442.75 27.675 443.23438 28.253124Q443.71875 28.815624 444.40625 28.815624Q445.10938 28.815624 445.60938 28.221874Q446.10938 27.628124 446.10938 26.378124Q446.10938 25.190624 445.625 24.6125Q445.14062 24.01875 444.45312 24.01875Q443.78125 24.01875 443.26562 24.64375Q442.75 25.26875 442.75 26.471874ZM448.78125 29.55L448.78125 23.33125L449.73438 23.33125L449.73438 24.26875Q450.09375 23.6125 450.39062 23.409374Q450.70312 23.190624 451.07812 23.190624Q451.60938 23.190624 452.15625 23.51875L451.79688 24.503124Q451.40625 24.26875 451.03125 24.26875Q450.67188 24.26875 450.39062 24.4875Q450.125 24.690624 450.01562 25.065624Q449.82812 25.628124 449.82812 26.284374L449.82812 29.55L448.78125 29.55ZM452.40625 26.440624Q452.40625 24.70625 453.35938 23.878124Q454.15625 23.190624 455.3125 23.190624Q456.59375 23.190624 457.40625 24.034374Q458.23438 24.8625 458.23438 26.346874Q458.23438 27.55 457.875 28.2375Q457.51562 28.925 456.8125 29.315624Q456.125 29.690624 455.3125 29.690624Q454.01562 29.690624 453.20312 28.8625Q452.40625 28.01875 452.40625 26.440624ZM453.48438 26.440624Q453.48438 27.628124 454.0 28.221874Q454.53125 28.815624 455.3125 28.815624Q456.10938 28.815624 456.625 28.221874Q457.14062 27.628124 457.14062 26.409374Q457.14062 25.253124 456.60938 24.659374Q456.09375 24.065624 455.3125 24.065624Q454.53125 24.065624 454.0 24.659374Q453.48438 25.2375 453.48438 26.440624ZM463.85938 27.26875L464.89062 27.409374Q464.71875 28.471874 464.01562 29.08125Q463.3125 29.690624 462.29688 29.690624Q461.01562 29.690624 460.23438 28.8625Q459.46875 28.01875 459.46875 26.45625Q459.46875 25.45625 459.79688 24.70625Q460.14062 23.940624 460.8125 23.565624Q461.5 23.190624 462.3125 23.190624Q463.3125 23.190624 463.95312 23.70625Q464.60938 24.20625 464.79688 25.159374L463.76562 25.315624Q463.625 24.690624 463.25 24.378124Q462.875 24.05 462.34375 24.05Q461.54688 24.05 461.04688 24.628124Q460.54688 25.190624 460.54688 26.425Q460.54688 27.690624 461.03125 28.253124Q461.51562 28.815624 462.28125 28.815624Q462.90625 28.815624 463.3125 28.440624Q463.73438 28.065624 463.85938 27.26875Z" fill-rule="nonzero"/></svg>