<svg version="1.1" viewBox="0.0 0.0 600.0 371.0" fill="none" stroke="none" stroke-linecap="square" stroke-miterlimit="10" width="600" height="371" xmlns:xlink="http://www.w3.org/1999/xlink" xmlns="http://www.w3.org/2000/svg"><path fill="#ffffff" d="M0 0L600.0 0L600.0 371.0L0 371.0L0 0Z" fill-rule="nonzero"/><path stroke="#cccccc" stroke-width="1.0" stroke-linecap="butt" d="M183.5 51.5L183.5 332.5" fill-rule="nonzero"/><path stroke="#cccccc" stroke-width="1.0" stroke-linecap="butt" d="M262.5 51.5L262.5 332.5" fill-rule="nonzero"/><path stroke="#cccccc" stroke-width="1.0" stroke-linecap="butt" d="M342.5 51.5L342.5 332.5" fill-rule="nonzero"/><path stroke="#cccccc" stroke-width="1.0" stroke-linecap="butt" d="M422.5 51.5L422.5 332.5" fill-rule="nonzero"/><path stroke="#cccccc" stroke-width="1.0" stroke-linecap="butt" d="M501.5 51.5L501.5 332.5" fill-rule="nonzero"/><path stroke="#cccccc" stroke-width="1.0" stroke-linecap="butt" d="M581.5 51.5L581.5 332.5" fill-rule="nonzero"/><path stroke="#333333" stroke-width="1.0" stroke-linecap="butt" d="M103.5 332.5L581.5 332.5" fill-rule="nonzero"/><path stroke="#cccccc" stroke-width="1.0" stroke-linecap="butt" d="M103.5 262.5L581.5 262.5" fill-rule="nonzero"/><path stroke="#cccccc" stroke-width="1.0" stroke-linecap="butt" d="M103.5 192.5L581.5 192.5" fill-rule="nonzero"/><path stroke="#cccccc" stroke-width="1.0" stroke-linecap="butt" d="M103.5 122.5L581.5 122.5" fill-rule="nonzero"/><path stroke="#cccccc" stroke-width="1.0" stroke-linecap="butt" d="M103.5 51.5L581.5 51.5" fill-rule="nonzero"/><clipPath id="id_0"><path d="M103.55 51.916668L581.45 51.916668L581.45 332.45L103.55 332.45L103.55 51.916668Z" clip-rule="nonzero"/></clipPath><path stroke="#ff0000" stroke-width="2.0" stroke-linecap="butt" stroke-dasharray="8.0,6.0" clip-path="url(#id_0)" d="M103.55 331.86166C103.55 331.86166 103.78897 331.86166 103.908455 331.86166C104.02794 331.86166 104.97054 331.86166 105.50159 331.86166C106.03263 331.86166 106.8292 331.87393 107.493004 331.86166C108.15681 331.84943 110.148224 331.7391 111.47584 331.7146C112.803444 331.6901 119.4415 331.7293 123.42433 331.7146C127.407166 331.6999 136.70044 331.6288 143.33849 331.5675C149.97655 331.50623 169.8907 331.2214 183.16681 331.12628C196.44292 331.03116 269.4615 330.92523 302.65176 330.73773C335.84204 330.55023 369.0323 330.18582 402.22256 329.9365C435.41284 329.68716 475.24115 329.3295 501.79337 329.24173C528.3456 329.15396 581.45 329.2709 581.45 329.2709" fill-rule="nonzero"/><path stroke="#ea4335" stroke-width="2.0" stroke-linecap="butt" clip-path="url(#id_0)" d="M103.55 328.7994C103.55 328.7994 103.78897 328.5598 103.908455 328.4392C104.02794 328.3186 104.97054 327.36646 105.50159 326.8242C106.03263 326.28192 106.8292 325.4481 107.493004 324.776C108.15681 324.10394 110.148224 322.12558 111.47584 320.8076C112.803444 319.48956 119.4415 312.9159 123.42433 308.9887C127.407166 305.06155 136.70044 295.9466 143.33849 289.41507C149.97655 282.8835 169.8907 263.16083 183.16681 250.18388C196.44292 237.20692 269.4615 162.46207 302.65176 134.29219C335.84204 106.12232 369.0323 71.14342 402.22256 61.84937C435.41284 52.555325 475.24115 78.291435 501.79337 78.527916C528.3456 78.764404 581.45 66.60399 581.45 66.60399" fill-rule="nonzero"/><path stroke="#34a853" stroke-width="2.0" stroke-linecap="butt" stroke-dasharray="8.0,6.0" clip-path="url(#id_0)" d="M103.55 331.5675C103.55 331.5675 103.78897 331.5675 103.908455 331.5675C104.02794 331.5675 104.97054 331.5675 105.50159 331.5675C106.03263 331.5675 106.8292 331.57977 107.493004 331.5675C108.15681 331.55527 110.148224 331.4613 111.47584 331.42044C112.803444 331.37958 119.4415 331.23413 123.42433 331.12628C127.407166 331.01843 136.70044 330.76123 143.33849 330.538C149.97655 330.31476 169.8907 329.53186 183.16681 329.03564C196.44292 328.5394 269.4615 325.7007 302.65176 324.61057C335.84204 323.52042 369.0323 322.74118 402.22256 321.7573C435.41284 320.7734 475.24115 319.19794 501.79337 318.70728C528.3456 318.21664 581.45 318.2034 581.45 318.2034" fill-rule="nonzero"/><path stroke="#34a853" stroke-width="2.0" stroke-linecap="butt" clip-path="url(#id_0)" d="M103.55 328.77698C103.55 328.77698 103.78897 328.76306 103.908455 328.75705C104.02794 328.75107 104.97054 328.7112 105.50159 328.6858C106.03263 328.6604 106.8292 328.61465 107.493004 328.58426C108.15681 328.55386 110.148224 328.5317 111.47584 328.42267C112.803444 328.31363 119.4415 327.24402 123.42433 326.94482C127.407166 326.6456 136.70044 326.60913 143.33849 326.41574C149.97655 326.22232 169.8907 325.60016 183.16681 325.15305C196.44292 324.70593 269.4615 322.21426 302.65176 320.89316C335.84204 319.57205 369.0323 318.06863 402.22256 316.51642C435.41284 314.96417 475.24115 312.45297 501.79337 311.5797C528.3456 310.70648 581.45 310.28955 581.45 310.28955" fill-rule="nonzero"/><path fill="#000000" fill-opacity="0.0" clip-path="url(#id_0)" d="M106.55 331.86166C106.55 333.51852 105.206856 334.86166 103.55 334.86166C101.89314 334.86166 100.55 333.51852 100.55 331.86166C100.55 330.20483 101.89314 328.86166 103.55 328.86166C105.206856 328.86166 106.55 330.20483 106.55 331.86166Z" fill-rule="nonzero"/><path fill="#000000" fill-opacity="0.0" clip-path="url(#id_0)" d="M106.908455 331.86166C106.908455 333.51852 105.56531 334.86166 103.908455 334.86166C102.2516 334.86166 100.908455 333.51852 100.908455 331.86166C100.908455 330.20483 102.2516 328.86166 103.908455 328.86166C105.56531 328.86166 106.908455 330.20483 106.908455 331.86166Z" fill-rule="nonzero"/><path fill="#000000" fill-opacity="0.0" clip-path="url(#id_0)" d="M108.50159 331.86166C108.50159 333.51852 107.15844 334.86166 105.50159 334.86166C103.844734 334.86166 102.50159 333.51852 102.50159 331.86166C102.50159 330.20483 103.844734 328.86166 105.50159 328.86166C107.15844 328.86166 108.50159 330.20483 108.50159 331.86166Z" fill-rule="nonzero"/><path fill="#000000" fill-opacity="0.0" clip-path="url(#id_0)" d="M110.493004 331.86166C110.493004 333.51852 109.14986 334.86166 107.493004 334.86166C105.83615 334.86166 104.493004 333.51852 104.493004 331.86166C104.493004 330.20483 105.83615 328.86166 107.493004 328.86166C109.14986 328.86166 110.493004 330.20483 110.493004 331.86166Z" fill-rule="nonzero"/><path fill="#000000" fill-opacity="0.0" clip-path="url(#id_0)" d="M114.47584 331.7146C114.47584 333.37146 113.13269 334.7146 111.47584 334.7146C109.818985 334.7146 108.47584 333.37146 108.47584 331.7146C108.47584 330.05774 109.818985 328.7146 111.47584 328.7146C113.13269 328.7146 114.47584 330.05774 114.47584 331.7146Z" fill-rule="nonzero"/><path fill="#000000" fill-opacity="0.0" clip-path="url(#id_0)" d="M126.42433 331.7146C126.42433 333.37146 125.081184 334.7146 123.42433 334.7146C121.76748 334.7146 120.42433 333.37146 120.42433 331.7146C120.42433 330.05774 121.76748 328.7146 123.42433 328.7146C125.081184 328.7146 126.42433 330.05774 126.42433 331.7146Z" fill-rule="nonzero"/><path fill="#000000" fill-opacity="0.0" clip-path="url(#id_0)" d="M146.33849 331.5675C146.33849 333.22437 144.99535 334.5675 143.33849 334.5675C141.68164 334.5675 140.33849 333.22437 140.33849 331.5675C140.33849 329.91068 141.68164 328.5675 143.33849 328.5675C144.99535 328.5675 146.33849 329.91068 146.33849 331.5675Z" fill-rule="nonzero"/><path fill="#000000" fill-opacity="0.0" clip-path="url(#id_0)" d="M186.16681 331.12628C186.16681 332.78314 184.82367 334.12628 183.16681 334.12628C181.50995 334.12628 180.16681 332.78314 180.16681 331.12628C180.16681 329.46942 181.50995 328.12628 183.16681 328.12628C184.82367 328.12628 186.16681 329.46942 186.16681 331.12628Z" fill-rule="nonzero"/><path fill="#000000" fill-opacity="0.0" clip-path="url(#id_0)" d="M305.65176 330.73773C305.65176 332.3946 304.30862 333.73773 302.65176 333.73773C300.9949 333.73773 299.65176 332.3946 299.65176 330.73773C299.65176 329.08087 300.9949 327.73773 302.65176 327.73773C304.30862 327.73773 305.65176 329.08087 305.65176 330.73773Z" fill-rule="nonzero"/><path fill="#000000" fill-opacity="0.0" clip-path="url(#id_0)" d="M405.22256 329.9365C405.22256 331.59335 403.87943 332.9365 402.22256 332.9365C400.5657 332.9365 399.22256 331.59335 399.22256 329.9365C399.22256 328.27963 400.5657 326.9365 402.22256 326.9365C403.87943 326.9365 405.22256 328.27963 405.22256 329.9365Z" fill-rule="nonzero"/><path fill="#000000" fill-opacity="0.0" clip-path="url(#id_0)" d="M504.79337 329.24173C504.79337 330.8986 503.45023 332.24173 501.79337 332.24173C500.1365 332.24173 498.79337 330.8986 498.79337 329.24173C498.79337 327.58487 500.1365 326.24173 501.79337 326.24173C503.45023 326.24173 504.79337 327.58487 504.79337 329.24173Z" fill-rule="nonzero"/><path fill="#000000" fill-opacity="0.0" clip-path="url(#id_0)" d="M584.45 329.2709C584.45 330.92776 583.1069 332.2709 581.45 332.2709C579.79315 332.2709 578.45 330.92776 578.45 329.2709C578.45 327.61407 579.79315 326.2709 581.45 326.2709C583.1069 326.2709 584.45 327.61407 584.45 329.2709Z" fill-rule="nonzero"/><path fill="#000000" fill-opacity="0.0" clip-path="url(#id_0)" d="M106.55 328.7994C106.55 330.45627 105.206856 331.7994 103.55 331.7994C101.89314 331.7994 100.55 330.45627 100.55 328.7994C100.55 327.14258 101.89314 325.7994 103.55 325.7994C105.206856 325.7994 106.55 327.14258 106.55 328.7994Z" fill-rule="nonzero"/><path fill="#000000" fill-opacity="0.0" clip-path="url(#id_0)" d="M106.908455 328.4392C106.908455 330.09607 105.56531 331.4392 103.908455 331.4392C102.2516 331.4392 100.908455 330.09607 100.908455 328.4392C100.908455 326.78235 102.2516 325.4392 103.908455 325.4392C105.56531 325.4392 106.908455 326.78235 106.908455 328.4392Z" fill-rule="nonzero"/><path fill="#000000" fill-opacity="0.0" clip-path="url(#id_0)" d="M108.50159 326.8242C108.50159 328.48105 107.15844 329.8242 105.50159 329.8242C103.844734 329.8242 102.50159 328.48105 102.50159 326.8242C102.50159 325.16733 103.844734 323.8242 105.50159 323.8242C107.15844 323.8242 108.50159 325.16733 108.50159 326.8242Z" fill-rule="nonzero"/><path fill="#000000" fill-opacity="0.0" clip-path="url(#id_0)" d="M110.493004 324.776C110.493004 326.43286 109.14986 327.776 107.493004 327.776C105.83615 327.776 104.493004 326.43286 104.493004 324.776C104.493004 323.11917 105.83615 321.776 107.493004 321.776C109.14986 321.776 110.493004 323.11917 110.493004 324.776Z" fill-rule="nonzero"/><path fill="#000000" fill-opacity="0.0" clip-path="url(#id_0)" d="M114.47584 320.8076C114.47584 322.46445 113.13269 323.8076 111.47584 323.8076C109.818985 323.8076 108.47584 322.46445 108.47584 320.8076C108.47584 319.15073 109.818985 317.8076 111.47584 317.8076C113.13269 317.8076 114.47584 319.15073 114.47584 320.8076Z" fill-rule="nonzero"/><path fill="#000000" fill-opacity="0.0" clip-path="url(#id_0)" d="M126.42433 308.9887C126.42433 310.64557 125.081184 311.9887 123.42433 311.9887C121.76748 311.9887 120.42433 310.64557 120.42433 308.9887C120.42433 307.33185 121.76748 305.9887 123.42433 305.9887C125.081184 305.9887 126.42433 307.33185 126.42433 308.9887Z" fill-rule="nonzero"/><path fill="#000000" fill-opacity="0.0" clip-path="url(#id_0)" d="M146.33849 289.41507C146.33849 291.07193 144.99535 292.41507 143.33849 292.41507C141.68164 292.41507 140.33849 291.07193 140.33849 289.41507C140.33849 287.7582 141.68164 286.41507 143.33849 286.41507C144.99535 286.41507 146.33849 287.7582 146.33849 289.41507Z" fill-rule="nonzero"/><path fill="#000000" fill-opacity="0.0" clip-path="url(#id_0)" d="M186.16681 250.18388C186.16681 251.84073 184.82367 253.18388 183.16681 253.18388C181.50995 253.18388 180.16681 251.84073 180.16681 250.18388C180.16681 248.52702 181.50995 247.18388 183.16681 247.18388C184.82367 247.18388 186.16681 248.52702 186.16681 250.18388Z" fill-rule="nonzero"/><path fill="#000000" fill-opacity="0.0" clip-path="url(#id_0)" d="M305.65176 134.29219C305.65176 135.94905 304.30862 137.29219 302.65176 137.29219C300.9949 137.29219 299.65176 135.94905 299.65176 134.29219C299.65176 132.63535 300.9949 131.29219 302.65176 131.29219C304.30862 131.29219 305.65176 132.63535 305.65176 134.29219Z" fill-rule="nonzero"/><path fill="#000000" fill-opacity="0.0" clip-path="url(#id_0)" d="M405.22256 61.84937C405.22256 63.506226 403.87943 64.84937 402.22256 64.84937C400.5657 64.84937 399.22256 63.506226 399.22256 61.84937C399.22256 60.192516 400.5657 58.84937 402.22256 58.84937C403.87943 58.84937 405.22256 60.192516 405.22256 61.84937Z" fill-rule="nonzero"/><path fill="#000000" fill-opacity="0.0" clip-path="url(#id_0)" d="M504.79337 78.527916C504.79337 80.18478 503.45023 81.527916 501.79337 81.527916C500.1365 81.527916 498.79337 80.18478 498.79337 78.527916C498.79337 76.87106 500.1365 75.527916 501.79337 75.527916C503.45023 75.527916 504.79337 76.87106 504.79337 78.527916Z" fill-rule="nonzero"/><path fill="#000000" fill-opacity="0.0" clip-path="url(#id_0)" d="M584.45 66.60399C584.45 68.26084 583.1069 69.60399 581.45 69.60399C579.79315 69.60399 578.45 68.26084 578.45 66.60399C578.45 64.947136 579.79315 63.60399 581.45 63.60399C583.1069 63.60399 584.45 64.947136 584.45 66.60399Z" fill-rule="nonzero"/><path fill="#000000" fill-opacity="0.0" clip-path="url(#id_0)" d="M106.55 331.5675C106.55 333.22437 105.206856 334.5675 103.55 334.5675C101.89314 334.5675 100.55 333.22437 100.55 331.5675C100.55 329.91068 101.89314 328.5675 103.55 328.5675C105.206856 328.5675 106.55 329.91068 106.55 331.5675Z" fill-rule="nonzero"/><path fill="#000000" fill-opacity="0.0" clip-path="url(#id_0)" d="M106.908455 331.5675C106.908455 333.22437 105.56531 334.5675 103.908455 334.5675C102.2516 334.5675 100.908455 333.22437 100.908455 331.5675C100.908455 329.91068 102.2516 328.5675 103.908455 328.5675C105.56531 328.5675 106.908455 329.91068 106.908455 331.5675Z" fill-rule="nonzero"/><path fill="#000000" fill-opacity="0.0" clip-path="url(#id_0)" d="M108.50159 331.5675C108.50159 333.22437 107.15844 334.5675 105.50159 334.5675C103.844734 334.5675 102.50159 333.22437 102.50159 331.5675C102.50159 329.91068 103.844734 328.5675 105.50159 328.5675C107.15844 328.5675 108.50159 329.91068 108.50159 331.5675Z" fill-rule="nonzero"/><path fill="#000000" fill-opacity="0.0" clip-path="url(#id_0)" d="M110.493004 331.5675C110.493004 333.22437 109.14986 334.5675 107.493004 334.5675C105.83615 334.5675 104.493004 333.22437 104.493004 331.5675C104.493004 329.91068 105.83615 328.5675 107.493004 328.5675C109.14986 328.5675 110.493004 329.91068 110.493004 331.5675Z" fill-rule="nonzero"/><path fill="#000000" fill-opacity="0.0" clip-path="url(#id_0)" d="M114.47584 331.42044C114.47584 333.0773 113.13269 334.42044 111.47584 334.42044C109.818985 334.42044 108.47584 333.0773 108.47584 331.42044C108.47584 329.76358 109.818985 328.42044 111.47584 328.42044C113.13269 328.42044 114.47584 329.76358 114.47584 331.42044Z" fill-rule="nonzero"/><path fill="#000000" fill-opacity="0.0" clip-path="url(#id_0)" d="M126.42433 331.12628C126.42433 332.78314 125.081184 334.12628 123.42433 334.12628C121.76748 334.12628 120.42433 332.78314 120.42433 331.12628C120.42433 329.46942 121.76748 328.12628 123.42433 328.12628C125.081184 328.12628 126.42433 329.46942 126.42433 331.12628Z" fill-rule="nonzero"/><path fill="#000000" fill-opacity="0.0" clip-path="url(#id_0)" d="M146.33849 330.538C146.33849 332.19485 144.99535 333.538 143.33849 333.538C141.68164 333.538 140.33849 332.19485 140.33849 330.538C140.33849 328.88113 141.68164 327.538 143.33849 327.538C144.99535 327.538 146.33849 328.88113 146.33849 330.538Z" fill-rule="nonzero"/><path fill="#000000" fill-opacity="0.0" clip-path="url(#id_0)" d="M186.16681 329.03564C186.16681 330.69247 184.82367 332.03564 183.16681 332.03564C181.50995 332.03564 180.16681 330.69247 180.16681 329.03564C180.16681 327.37878 181.50995 326.03564 183.16681 326.03564C184.82367 326.03564 186.16681 327.37878 186.16681 329.03564Z" fill-rule="nonzero"/><path fill="#000000" fill-opacity="0.0" clip-path="url(#id_0)" d="M305.65176 324.61057C305.65176 326.26743 304.30862 327.61057 302.65176 327.61057C300.9949 327.61057 299.65176 326.26743 299.65176 324.61057C299.65176 322.9537 300.9949 321.61057 302.65176 321.61057C304.30862 321.61057 305.65176 322.9537 305.65176 324.61057Z" fill-rule="nonzero"/><path fill="#000000" fill-opacity="0.0" clip-path="url(#id_0)" d="M405.22256 321.7573C405.22256 323.41415 403.87943 324.7573 402.22256 324.7573C400.5657 324.7573 399.22256 323.41415 399.22256 321.7573C399.22256 320.10043 400.5657 318.7573 402.22256 318.7573C403.87943 318.7573 405.22256 320.10043 405.22256 321.7573Z" fill-rule="nonzero"/><path fill="#000000" fill-opacity="0.0" clip-path="url(#id_0)" d="M504.79337 318.70728C504.79337 320.36414 503.45023 321.70728 501.79337 321.70728C500.1365 321.70728 498.79337 320.36414 498.79337 318.70728C498.79337 317.0504 500.1365 315.70728 501.79337 315.70728C503.45023 315.70728 504.79337 317.0504 504.79337 318.70728Z" fill-rule="nonzero"/><path fill="#000000" fill-opacity="0.0" clip-path="url(#id_0)" d="M584.45 318.2034C584.45 319.86023 583.1069 321.2034 581.45 321.2034C579.79315 321.2034 578.45 319.86023 578.45 318.2034C578.45 316.54654 579.79315 315.2034 581.45 315.2034C583.1069 315.2034 584.45 316.54654 584.45 318.2034Z" fill-rule="nonzero"/><path fill="#000000" fill-opacity="0.0" clip-path="url(#id_0)" d="M106.55 328.77698C106.55 330.43384 105.206856 331.77698 103.55 331.77698C101.89314 331.77698 100.55 330.43384 100.55 328.77698C100.55 327.12012 101.89314 325.77698 103.55 325.77698C105.206856 325.77698 106.55 327.12012 106.55 328.77698Z" fill-rule="nonzero"/><path fill="#000000" fill-opacity="0.0" clip-path="url(#id_0)" d="M106.908455 328.75705C106.908455 330.4139 105.56531 331.75705 103.908455 331.75705C102.2516 331.75705 100.908455 330.4139 100.908455 328.75705C100.908455 327.10022 102.2516 325.75705 103.908455 325.75705C105.56531 325.75705 106.908455 327.10022 106.908455 328.75705Z" fill-rule="nonzero"/><path fill="#000000" fill-opacity="0.0" clip-path="url(#id_0)" d="M108.50159 328.6858C108.50159 330.34265 107.15844 331.6858 105.50159 331.6858C103.844734 331.6858 102.50159 330.34265 102.50159 328.6858C102.50159 327.02896 103.844734 325.6858 105.50159 325.6858C107.15844 325.6858 108.50159 327.02896 108.50159 328.6858Z" fill-rule="nonzero"/><path fill="#000000" fill-opacity="0.0" clip-path="url(#id_0)" d="M110.493004 328.58426C110.493004 330.24112 109.14986 331.58426 107.493004 331.58426C105.83615 331.58426 104.493004 330.24112 104.493004 328.58426C104.493004 326.9274 105.83615 325.58426 107.493004 325.58426C109.14986 325.58426 110.493004 326.9274 110.493004 328.58426Z" fill-rule="nonzero"/><path fill="#000000" fill-opacity="0.0" clip-path="url(#id_0)" d="M114.47584 328.42267C114.47584 330.07953 113.13269 331.42267 111.47584 331.42267C109.818985 331.42267 108.47584 330.07953 108.47584 328.42267C108.47584 326.7658 109.818985 325.42267 111.47584 325.42267C113.13269 325.42267 114.47584 326.7658 114.47584 328.42267Z" fill-rule="nonzero"/><path fill="#000000" fill-opacity="0.0" clip-path="url(#id_0)" d="M126.42433 326.94482C126.42433 328.60165 125.081184 329.94482 123.42433 329.94482C121.76748 329.94482 120.42433 328.60165 120.42433 326.94482C120.42433 325.28796 121.76748 323.94482 123.42433 323.94482C125.081184 323.94482 126.42433 325.28796 126.42433 326.94482Z" fill-rule="nonzero"/><path fill="#000000" fill-opacity="0.0" clip-path="url(#id_0)" d="M146.33849 326.41574C146.33849 328.07257 144.99535 329.41574 143.33849 329.41574C141.68164 329.41574 140.33849 328.07257 140.33849 326.41574C140.33849 324.75888 141.68164 323.41574 143.33849 323.41574C144.99535 323.41574 146.33849 324.75888 146.33849 326.41574Z" fill-rule="nonzero"/><path fill="#000000" fill-opacity="0.0" clip-path="url(#id_0)" d="M186.16681 325.15305C186.16681 326.8099 184.82367 328.15305 183.16681 328.15305C181.50995 328.15305 180.16681 326.8099 180.16681 325.15305C180.16681 323.4962 181.50995 322.15305 183.16681 322.15305C184.82367 322.15305 186.16681 323.4962 186.16681 325.15305Z" fill-rule="nonzero"/><path fill="#000000" fill-opacity="0.0" clip-path="url(#id_0)" d="M305.65176 320.89316C305.65176 322.55 304.30862 323.89316 302.65176 323.89316C300.9949 323.89316 299.65176 322.55 299.65176 320.89316C299.65176 319.2363 300.9949 317.89316 302.65176 317.89316C304.30862 317.89316 305.65176 319.2363 305.65176 320.89316Z" fill-rule="nonzero"/><path fill="#000000" fill-opacity="0.0" clip-path="url(#id_0)" d="M405.22256 316.51642C405.22256 318.17325 403.87943 319.51642 402.22256 319.51642C400.5657 319.51642 399.22256 318.17325 399.22256 316.51642C399.22256 314.85956 400.5657 313.51642 402.22256 313.51642C403.87943 313.51642 405.22256 314.85956 405.22256 316.51642Z" fill-rule="nonzero"/><path fill="#000000" fill-opacity="0.0" clip-path="url(#id_0)" d="M504.79337 311.5797C504.79337 313.23657 503.45023 314.5797 501.79337 314.5797C500.1365 314.5797 498.79337 313.23657 498.79337 311.5797C498.79337 309.92288 500.1365 308.5797 501.79337 308.5797C503.45023 308.5797 504.79337 309.92288 504.79337 311.5797Z" fill-rule="nonzero"/><path fill="#000000" fill-opacity="0.0" clip-path="url(#id_0)" d="M584.45 310.28955C584.45 311.9464 583.1069 313.28955 581.45 313.28955C579.79315 313.28955 578.45 311.9464 578.45 310.28955C578.45 308.6327 579.79315 307.28955 581.45 307.28955C583.1069 307.28955 584.45 308.6327 584.45 310.28955Z" fill-rule="nonzero"/><path fill="#000000" d="M77.05 332.21564Q77.05 330.6844 77.3625 329.7625Q77.675 328.825 78.28438 328.325Q78.90938 327.825 79.84688 327.825Q80.53438 327.825 81.05 328.10626Q81.58125 328.3875 81.925 328.91876Q82.26875 329.4344 82.45625 330.1844Q82.64375 330.9344 82.64375 332.21564Q82.64375 333.73126 82.33125 334.65314Q82.03438 335.575 81.40938 336.09064Q80.8 336.59064 79.84688 336.59064Q78.6125 336.59064 77.89375 335.7Q77.05 334.6375 77.05 332.21564ZM78.12813 332.21564Q78.12813 334.325 78.62813 335.02814Q79.12813 335.73126 79.84688 335.73126Q80.58125 335.73126 81.06563 335.02814Q81.56563 334.325 81.56563 332.21564Q81.56563 330.09064 81.06563 329.40314Q80.58125 328.7 79.83125 328.7Q79.1125 328.7 78.675 329.3094Q78.12813 330.09064 78.12813 332.21564ZM84.05 332.21564Q84.05 330.6844 84.3625 329.7625Q84.675 328.825 85.28438 328.325Q85.90938 327.825 86.84688 327.825Q87.53438 327.825 88.05 328.10626Q88.58125 328.3875 88.925 328.91876Q89.26875 329.4344 89.45625 330.1844Q89.64375 330.9344 89.64375 332.21564Q89.64375 333.73126 89.33125 334.65314Q89.03438 335.575 88.40938 336.09064Q87.8 336.59064 86.84688 336.59064Q85.6125 336.59064 84.89375 335.7Q84.05 334.6375 84.05 332.21564ZM85.12813 332.21564Q85.12813 334.325 85.62813 335.02814Q86.12813 335.73126 86.84688 335.73126Q87.58125 335.73126 88.06563 335.02814Q88.56563 334.325 88.56563 332.21564Q88.56563 330.09064 88.06563 329.40314Q87.58125 328.7 86.83125 328.7Q86.1125 328.7 85.675 329.3094Q85.12813 330.09064 85.12813 332.21564ZM91.05 332.21564Q91.05 330.6844 91.3625 329.7625Q91.675 328.825 92.28438 328.325Q92.90938 327.825 93.84688 327.825Q94.53438 327.825 95.05 328.10626Q95.58125 328.3875 95.925 328.91876Q96.26875 329.4344 96.45625 330.1844Q96.64375 330.9344 96.64375 332.21564Q96.64375 333.73126 96.33125 334.65314Q96.03438 335.575 95.40938 336.09064Q94.8 336.59064 93.84688 336.59064Q92.6125 336.59064 91.89375 335.7Q91.05 334.6375 91.05 332.21564ZM92.12813 332.21564Q92.12813 334.325 92.62813 335.02814Q93.12813 335.73126 93.84688 335.73126Q94.58125 335.73126 95.06563 335.02814Q95.56563 334.325 95.56563 332.21564Q95.56563 330.09064 95.06563 329.40314Q94.58125 328.7 93.83125 328.7Q93.1125 328.7 92.675 329.3094Q92.12813 330.09064 92.12813 332.21564Z" fill-rule="nonzero"/><path fill="#000000" d="M23.01875 266.31668L21.971874 266.31668L21.971874 259.59793Q21.58125 259.9573 20.95625 260.3323Q20.346874 260.69168 19.8625 260.86356L19.8625 259.84793Q20.7375 259.42606 21.39375 258.84793Q22.065624 258.25418 22.346874 257.69168L23.01875 257.69168L23.01875 266.31668ZM26.6125 266.31668L26.6125 265.11356L27.815624 265.11356L27.815624 266.31668Q27.815624 266.97293 27.58125 267.37918Q27.346874 267.80106 26.846874 268.0198L26.55 267.56668Q26.878124 267.42606 27.034374 267.12918Q27.190624 266.84793 27.221874 266.31668L26.6125 266.31668ZM29.05 262.0823Q29.05 260.55106 29.3625 259.62918Q29.675 258.69168 30.284374 258.19168Q30.909374 257.69168 31.846874 257.69168Q32.534374 257.69168 33.05 257.97293Q33.58125 258.25418 33.925 258.78543Q34.26875 259.30106 34.45625 260.05106Q34.64375 260.80106 34.64375 262.0823Q34.64375 263.59793 34.33125 264.5198Q34.034374 265.44168 33.409374 265.9573Q32.8 266.4573 31.846874 266.4573Q30.6125 266.4573 29.89375 265.56668Q29.05 264.50418 29.05 262.0823ZM30.128124 262.0823Q30.128124 264.19168 30.628124 264.8948Q31.128124 265.59793 31.846874 265.59793Q32.58125 265.59793 33.065624 264.8948Q33.565624 264.19168 33.565624 262.0823Q33.565624 259.9573 33.065624 259.2698Q32.58125 258.56668 31.83125 258.56668Q31.1125 258.56668 30.675 259.17606Q30.128124 259.9573 30.128124 262.0823ZM36.05 262.0823Q36.05 260.55106 36.3625 259.62918Q36.675 258.69168 37.284374 258.19168Q37.909374 257.69168 38.846874 257.69168Q39.534374 257.69168 40.05 257.97293Q40.58125 258.25418 40.925 258.78543Q41.26875 259.30106 41.45625 260.05106Q41.64375 260.80106 41.64375 262.0823Q41.64375 263.59793 41.33125 264.5198Q41.034374 265.44168 40.409374 265.9573Q39.8 266.4573 38.846874 266.4573Q37.6125 266.4573 36.89375 265.56668Q36.05 264.50418 36.05 262.0823ZM37.128124 262.0823Q37.128124 264.19168 37.628124 264.8948Q38.128124 265.59793 38.846874 265.59793Q39.58125 265.59793 40.065624 264.8948Q40.565624 264.19168 40.565624 262.0823Q40.565624 259.9573 40.065624 259.2698Q39.58125 258.56668 38.83125 258.56668Q38.1125 258.56668 37.675 259.17606Q37.128124 259.9573 37.128124 262.0823ZM43.05 262.0823Q43.05 260.55106 43.3625 259.62918Q43.675 258.69168 44.284374 258.19168Q44.909374 257.69168 45.846874 257.69168Q46.534374 257.69168 47.05 257.97293Q47.58125 258.25418 47.925 258.78543Q48.26875 259.30106 48.45625 260.05106Q48.64375 260.80106 48.64375 262.0823Q48.64375 263.59793 48.33125 264.5198Q48.034374 265.44168 47.409374 265.9573Q46.8 266.4573 45.846874 266.4573Q44.6125 266.4573 43.89375 265.56668Q43.05 264.50418 43.05 262.0823ZM44.128124 262.0823Q44.128124 264.19168 44.628124 264.8948Q45.128124 265.59793 45.846874 265.59793Q46.58125 265.59793 47.065624 264.8948Q47.565624 264.19168 47.565624 262.0823Q47.565624 259.9573 47.065624 259.2698Q46.58125 258.56668 45.83125 258.56668Q45.1125 258.56668 44.675 259.17606Q44.128124 259.9573 44.128124 262.0823ZM50.6125 266.31668L50.6125 265.11356L51.815624 265.11356L51.815624 266.31668Q51.815624 266.97293 51.58125 267.37918Q51.346874 267.80106 50.846874 268.0198L50.55 267.56668Q50.878124 267.42606 51.034374 267.12918Q51.190624 266.84793 51.221874 266.31668L50.6125 266.31668ZM53.05 262.0823Q53.05 260.55106 53.3625 259.62918Q53.675 258.69168 54.284374 258.19168Q54.909374 257.69168 55.846874 257.69168Q56.534374 257.69168 57.05 257.97293Q57.58125 258.25418 57.925 258.78543Q58.26875 259.30106 58.45625 260.05106Q58.64375 260.80106 58.64375 262.0823Q58.64375 263.59793 58.33125 264.5198Q58.034374 265.44168 57.409374 265.9573Q56.8 266.4573 55.846874 266.4573Q54.6125 266.4573 53.89375 265.56668Q53.05 264.50418 53.05 262.0823ZM54.128124 262.0823Q54.128124 264.19168 54.628124 264.8948Q55.128124 265.59793 55.846874 265.59793Q56.58125 265.59793 57.065624 264.8948Q57.565624 264.19168 57.565624 262.0823Q57.565624 259.9573 57.065624 259.2698Q56.58125 258.56668 55.83125 258.56668Q55.1125 258.56668 54.675 259.17606Q54.128124 259.9573 54.128124 262.0823ZM60.05 262.0823Q60.05 260.55106 60.3625 259.62918Q60.675 258.69168 61.284374 258.19168Q61.909374 257.69168 62.846874 257.69168Q63.534374 257.69168 64.05 257.97293Q64.58125 258.25418 64.925 258.78543Q65.26875 259.30106 65.45625 260.05106Q65.64375 260.80106 65.64375 262.0823Q65.64375 263.59793 65.33125 264.5198Q65.03438 265.44168 64.40938 265.9573Q63.8 266.4573 62.846874 266.4573Q61.6125 266.4573 60.89375 265.56668Q60.05 264.50418 60.05 262.0823ZM61.128124 262.0823Q61.128124 264.19168 61.628124 264.8948Q62.128124 265.59793 62.846874 265.59793Q63.58125 265.59793 64.06563 264.8948Q64.56563 264.19168 64.56563 262.0823Q64.56563 259.9573 64.06563 259.2698Q63.58125 258.56668 62.83125 258.56668Q62.1125 258.56668 61.675 259.17606Q61.128124 259.9573 61.128124 262.0823ZM67.05 262.0823Q67.05 260.55106 67.3625 259.62918Q67.675 258.69168 68.28438 258.19168Q68.90938 257.69168 69.84688 257.69168Q70.53438 257.69168 71.05 257.97293Q71.58125 258.25418 71.925 258.78543Q72.26875 259.30106 72.45625 260.05106Q72.64375 260.80106 72.64375 262.0823Q72.64375 263.59793 72.33125 264.5198Q72.03438 265.44168 71.40938 265.9573Q70.8 266.4573 69.84688 266.4573Q68.6125 266.4573 67.89375 265.56668Q67.05 264.50418 67.05 262.0823ZM68.12813 262.0823Q68.12813 264.19168 68.62813 264.8948Q69.12813 265.59793 69.84688 265.59793Q70.58125 265.59793 71.06563 264.8948Q71.56563 264.19168 71.56563 262.0823Q71.56563 259.9573 71.06563 259.2698Q70.58125 258.56668 69.83125 258.56668Q69.1125 258.56668 68.675 259.17606Q68.12813 259.9573 68.12813 262.0823ZM74.6125 266.31668L74.6125 265.11356L75.81563 265.11356L75.81563 266.31668Q75.81563 266.97293 75.58125 267.37918Q75.34688 267.80106 74.84688 268.0198L74.55 267.56668Q74.87813 267.42606 75.03438 267.12918Q75.19063 266.84793 75.22188 266.31668L74.6125 266.31668ZM77.05 262.0823Q77.05 260.55106 77.3625 259.62918Q77.675 258.69168 78.28438 258.19168Q78.90938 257.69168 79.84688 257.69168Q80.53438 257.69168 81.05 257.97293Q81.58125 258.25418 81.925 258.78543Q82.26875 259.30106 82.45625 260.05106Q82.64375 260.80106 82.64375 262.0823Q82.64375 263.59793 82.33125 264.5198Q82.03438 265.44168 81.40938 265.9573Q80.8 266.4573 79.84688 266.4573Q78.6125 266.4573 77.89375 265.56668Q77.05 264.50418 77.05 262.0823ZM78.12813 262.0823Q78.12813 264.19168 78.62813 264.8948Q79.12813 265.59793 79.84688 265.59793Q80.58125 265.59793 81.06563 264.8948Q81.56563 264.19168 81.56563 262.0823Q81.56563 259.9573 81.06563 259.2698Q80.58125 258.56668 79.83125 258.56668Q79.1125 258.56668 78.675 259.17606Q78.12813 259.9573 78.12813 262.0823ZM84.05 262.0823Q84.05 260.55106 84.3625 259.62918Q84.675 258.69168 85.28438 258.19168Q85.90938 257.69168 86.84688 257.69168Q87.53438 257.69168 88.05 257.97293Q88.58125 258.25418 88.925 258.78543Q89.26875 259.30106 89.45625 260.05106Q89.64375 260.80106 89.64375 262.0823Q89.64375 263.59793 89.33125 264.5198Q89.03438 265.44168 88.40938 265.9573Q87.8 266.4573 86.84688 266.4573Q85.6125 266.4573 84.89375 265.56668Q84.05 264.50418 84.05 262.0823ZM85.12813 262.0823Q85.12813 264.19168 85.62813 264.8948Q86.12813 265.59793 86.84688 265.59793Q87.58125 265.59793 88.06563 264.8948Q88.56563 264.19168 88.56563 262.0823Q88.56563 259.9573 88.06563 259.2698Q87.58125 258.56668 86.83125 258.56668Q86.1125 258.56668 85.675 259.17606Q85.12813 259.9573 85.12813 262.0823ZM91.05 262.0823Q91.05 260.55106 91.3625 259.62918Q91.675 258.69168 92.28438 258.19168Q92.90938 257.69168 93.84688 257.69168Q94.53438 257.69168 95.05 257.97293Q95.58125 258.25418 95.925 258.78543Q96.26875 259.30106 96.45625 260.05106Q96.64375 260.80106 96.64375 262.0823Q96.64375 263.59793 96.33125 264.5198Q96.03438 265.44168 95.40938 265.9573Q94.8 266.4573 93.84688 266.4573Q92.6125 266.4573 91.89375 265.56668Q91.05 264.50418 91.05 262.0823ZM92.12813 262.0823Q92.12813 264.19168 92.62813 264.8948Q93.12813 265.59793 93.84688 265.59793Q94.58125 265.59793 95.06563 264.8948Q95.56563 264.19168 95.56563 262.0823Q95.56563 259.9573 95.06563 259.2698Q94.58125 258.56668 93.83125 258.56668Q93.1125 258.56668 92.675 259.17606Q92.12813 259.9573 92.12813 262.0823Z" fill-rule="nonzero"/><path fill="#000000" d="M24.596874 195.16771L24.596874 196.18333L18.909374 196.18333Q18.909374 195.80833 19.034374 195.44896Q19.253124 194.87083 19.721874 194.30833Q20.20625 193.74583 21.1125 193.01146Q22.51875 191.85521 23.003124 191.18333Q23.503124 190.51146 23.503124 189.91771Q23.503124 189.29271 23.05 188.87083Q22.596874 188.43333 21.878124 188.43333Q21.1125 188.43333 20.659374 188.88646Q20.20625 189.33958 20.190624 190.15208L19.1125 190.04271Q19.221874 188.82396 19.940624 188.19896Q20.675 187.55833 21.909374 187.55833Q23.14375 187.55833 23.8625 188.24583Q24.58125 188.93333 24.58125 189.94896Q24.58125 190.46458 24.3625 190.96458Q24.159374 191.44896 23.659374 192.01146Q23.175 192.55833 22.05 193.51146Q21.096874 194.30833 20.815624 194.60521Q20.55 194.88646 20.378124 195.16771L24.596874 195.16771ZM26.6125 196.18333L26.6125 194.98021L27.815624 194.98021L27.815624 196.18333Q27.815624 196.83958 27.58125 197.24583Q27.346874 197.66771 26.846874 197.88646L26.55 197.43333Q26.878124 197.29271 27.034374 196.99583Q27.190624 196.71458 27.221874 196.18333L26.6125 196.18333ZM29.05 191.94896Q29.05 190.41771 29.3625 189.49583Q29.675 188.55833 30.284374 188.05833Q30.909374 187.55833 31.846874 187.55833Q32.534374 187.55833 33.05 187.83958Q33.58125 188.12083 33.925 188.65208Q34.26875 189.16771 34.45625 189.91771Q34.64375 190.66771 34.64375 191.94896Q34.64375 193.46458 34.33125 194.38646Q34.034374 195.30833 33.409374 195.82396Q32.8 196.32396 31.846874 196.32396Q30.6125 196.32396 29.89375 195.43333Q29.05 194.37083 29.05 191.94896ZM30.128124 191.94896Q30.128124 194.05833 30.628124 194.76146Q31.128124 195.46458 31.846874 195.46458Q32.58125 195.46458 33.065624 194.76146Q33.565624 194.05833 33.565624 191.94896Q33.565624 189.82396 33.065624 189.13646Q32.58125 188.43333 31.83125 188.43333Q31.1125 188.43333 30.675 189.04271Q30.128124 189.82396 30.128124 191.94896ZM36.05 191.94896Q36.05 190.41771 36.3625 189.49583Q36.675 188.55833 37.284374 188.05833Q37.909374 187.55833 38.846874 187.55833Q39.534374 187.55833 40.05 187.83958Q40.58125 188.12083 40.925 188.65208Q41.26875 189.16771 41.45625 189.91771Q41.64375 190.66771 41.64375 191.94896Q41.64375 193.46458 41.33125 194.38646Q41.034374 195.30833 40.409374 195.82396Q39.8 196.32396 38.846874 196.32396Q37.6125 196.32396 36.89375 195.43333Q36.05 194.37083 36.05 191.94896ZM37.128124 191.94896Q37.128124 194.05833 37.628124 194.76146Q38.128124 195.46458 38.846874 195.46458Q39.58125 195.46458 40.065624 194.76146Q40.565624 194.05833 40.565624 191.94896Q40.565624 189.82396 40.065624 189.13646Q39.58125 188.43333 38.83125 188.43333Q38.1125 188.43333 37.675 189.04271Q37.128124 189.82396 37.128124 191.94896ZM43.05 191.94896Q43.05 190.41771 43.3625 189.49583Q43.675 188.55833 44.284374 188.05833Q44.909374 187.55833 45.846874 187.55833Q46.534374 187.55833 47.05 187.83958Q47.58125 188.12083 47.925 188.65208Q48.26875 189.16771 48.45625 189.91771Q48.64375 190.66771 48.64375 191.94896Q48.64375 193.46458 48.33125 194.38646Q48.034374 195.30833 47.409374 195.82396Q46.8 196.32396 45.846874 196.32396Q44.6125 196.32396 43.89375 195.43333Q43.05 194.37083 43.05 191.94896ZM44.128124 191.94896Q44.128124 194.05833 44.628124 194.76146Q45.128124 195.46458 45.846874 195.46458Q46.58125 195.46458 47.065624 194.76146Q47.565624 194.05833 47.565624 191.94896Q47.565624 189.82396 47.065624 189.13646Q46.58125 188.43333 45.83125 188.43333Q45.1125 188.43333 44.675 189.04271Q44.128124 189.82396 44.128124 191.94896ZM50.6125 196.18333L50.6125 194.98021L51.815624 194.98021L51.815624 196.18333Q51.815624 196.83958 51.58125 197.24583Q51.346874 197.66771 50.846874 197.88646L50.55 197.43333Q50.878124 197.29271 51.034374 196.99583Q51.190624 196.71458 51.221874 196.18333L50.6125 196.18333ZM53.05 191.94896Q53.05 190.41771 53.3625 189.49583Q53.675 188.55833 54.284374 188.05833Q54.909374 187.55833 55.846874 187.55833Q56.534374 187.55833 57.05 187.83958Q57.58125 188.12083 57.925 188.65208Q58.26875 189.16771 58.45625 189.91771Q58.64375 190.66771 58.64375 191.94896Q58.64375 193.46458 58.33125 194.38646Q58.034374 195.30833 57.409374 195.82396Q56.8 196.32396 55.846874 196.32396Q54.6125 196.32396 53.89375 195.43333Q53.05 194.37083 53.05 191.94896ZM54.128124 191.94896Q54.128124 194.05833 54.628124 194.76146Q55.128124 195.46458 55.846874 195.46458Q56.58125 195.46458 57.065624 194.76146Q57.565624 194.05833 57.565624 191.94896Q57.565624 189.82396 57.065624 189.13646Q56.58125 188.43333 55.83125 188.43333Q55.1125 188.43333 54.675 189.04271Q54.128124 189.82396 54.128124 191.94896ZM60.05 191.94896Q60.05 190.41771 60.3625 189.49583Q60.675 188.55833 61.284374 188.05833Q61.909374 187.55833 62.846874 187.55833Q63.534374 187.55833 64.05 187.83958Q64.58125 188.12083 64.925 188.65208Q65.26875 189.16771 65.45625 189.91771Q65.64375 190.66771 65.64375 191.94896Q65.64375 193.46458 65.33125 194.38646Q65.03438 195.30833 64.40938 195.82396Q63.8 196.32396 62.846874 196.32396Q61.6125 196.32396 60.89375 195.43333Q60.05 194.37083 60.05 191.94896ZM61.128124 191.94896Q61.128124 194.05833 61.628124 194.76146Q62.128124 195.46458 62.846874 195.46458Q63.58125 195.46458 64.06563 194.76146Q64.56563 194.05833 64.56563 191.94896Q64.56563 189.82396 64.06563 189.13646Q63.58125 188.43333 62.83125 188.43333Q62.1125 188.43333 61.675 189.04271Q61.128124 189.82396 61.128124 191.94896ZM67.05 191.94896Q67.05 190.41771 67.3625 189.49583Q67.675 188.55833 68.28438 188.05833Q68.90938 187.55833 69.84688 187.55833Q70.53438 187.55833 71.05 187.83958Q71.58125 188.12083 71.925 188.65208Q72.26875 189.16771 72.45625 189.91771Q72.64375 190.66771 72.64375 191.94896Q72.64375 193.46458 72.33125 194.38646Q72.03438 195.30833 71.40938 195.82396Q70.8 196.32396 69.84688 196.32396Q68.6125 196.32396 67.89375 195.43333Q67.05 194.37083 67.05 191.94896ZM68.12813 191.94896Q68.12813 194.05833 68.62813 194.76146Q69.12813 195.46458 69.84688 195.46458Q70.58125 195.46458 71.06563 194.76146Q71.56563 194.05833 71.56563 191.94896Q71.56563 189.82396 71.06563 189.13646Q70.58125 188.43333 69.83125 188.43333Q69.1125 188.43333 68.675 189.04271Q68.12813 189.82396 68.12813 191.94896ZM74.6125 196.18333L74.6125 194.98021L75.81563 194.98021L75.81563 196.18333Q75.81563 196.83958 75.58125 197.24583Q75.34688 197.66771 74.84688 197.88646L74.55 197.43333Q74.87813 197.29271 75.03438 196.99583Q75.19063 196.71458 75.22188 196.18333L74.6125 196.18333ZM77.05 191.94896Q77.05 190.41771 77.3625 189.49583Q77.675 188.55833 78.28438 188.05833Q78.90938 187.55833 79.84688 187.55833Q80.53438 187.55833 81.05 187.83958Q81.58125 188.12083 81.925 188.65208Q82.26875 189.16771 82.45625 189.91771Q82.64375 190.66771 82.64375 191.94896Q82.64375 193.46458 82.33125 194.38646Q82.03438 195.30833 81.40938 195.82396Q80.8 196.32396 79.84688 196.32396Q78.6125 196.32396 77.89375 195.43333Q77.05 194.37083 77.05 191.94896ZM78.12813 191.94896Q78.12813 194.05833 78.62813 194.76146Q79.12813 195.46458 79.84688 195.46458Q80.58125 195.46458 81.06563 194.76146Q81.56563 194.05833 81.56563 191.94896Q81.56563 189.82396 81.06563 189.13646Q80.58125 188.43333 79.83125 188.43333Q79.1125 188.43333 78.675 189.04271Q78.12813 189.82396 78.12813 191.94896ZM84.05 191.94896Q84.05 190.41771 84.3625 189.49583Q84.675 188.55833 85.28438 188.05833Q85.90938 187.55833 86.84688 187.55833Q87.53438 187.55833 88.05 187.83958Q88.58125 188.12083 88.925 188.65208Q89.26875 189.16771 89.45625 189.91771Q89.64375 190.66771 89.64375 191.94896Q89.64375 193.46458 89.33125 194.38646Q89.03438 195.30833 88.40938 195.82396Q87.8 196.32396 86.84688 196.32396Q85.6125 196.32396 84.89375 195.43333Q84.05 194.37083 84.05 191.94896ZM85.12813 191.94896Q85.12813 194.05833 85.62813 194.76146Q86.12813 195.46458 86.84688 195.46458Q87.58125 195.46458 88.06563 194.76146Q88.56563 194.05833 88.56563 191.94896Q88.56563 189.82396 88.06563 189.13646Q87.58125 188.43333 86.83125 188.43333Q86.1125 188.43333 85.675 189.04271Q85.12813 189.82396 85.12813 191.94896ZM91.05 191.94896Q91.05 190.41771 91.3625 189.49583Q91.675 188.55833 92.28438 188.05833Q92.90938 187.55833 93.84688 187.55833Q94.53438 187.55833 95.05 187.83958Q95.58125 188.12083 95.925 188.65208Q96.26875 189.16771 96.45625 189.91771Q96.64375 190.66771 96.64375 191.94896Q96.64375 193.46458 96.33125 194.38646Q96.03438 195.30833 95.40938 195.82396Q94.8 196.32396 93.84688 196.32396Q92.6125 196.32396 91.89375 195.43333Q91.05 194.37083 91.05 191.94896ZM92.12813 191.94896Q92.12813 194.05833 92.62813 194.76146Q93.12813 195.46458 93.84688 195.46458Q94.58125 195.46458 95.06563 194.76146Q95.56563 194.05833 95.56563 191.94896Q95.56563 189.82396 95.06563 189.13646Q94.58125 188.43333 93.83125 188.43333Q93.1125 188.43333 92.675 189.04271Q92.12813 189.82396 92.12813 191.94896Z" fill-rule="nonzero"/><path fill="#000000" d="M19.05 123.78438L20.1125 123.64375Q20.284374 124.53438 20.721874 124.94063Q21.159374 125.33125 21.784374 125.33125Q22.534374 125.33125 23.05 124.81563Q23.565624 124.3 23.565624 123.53438Q23.565624 122.81563 23.08125 122.34688Q22.6125 121.8625 21.878124 121.8625Q21.58125 121.8625 21.128124 121.9875L21.253124 121.05Q21.3625 121.06563 21.425 121.06563Q22.096874 121.06563 22.628124 120.72188Q23.175 120.3625 23.175 119.62813Q23.175 119.05 22.784374 118.675Q22.39375 118.28438 21.76875 118.28438Q21.159374 118.28438 20.7375 118.675Q20.33125 119.06563 20.221874 119.83125L19.159374 119.64375Q19.346874 118.59688 20.034374 118.01875Q20.721874 117.425 21.7375 117.425Q22.440624 117.425 23.034374 117.7375Q23.628124 118.03438 23.940624 118.55Q24.253124 119.06563 24.253124 119.65938Q24.253124 120.20625 23.95625 120.675Q23.659374 121.12813 23.08125 121.39375Q23.83125 121.56563 24.253124 122.12813Q24.675 122.675 24.675 123.51875Q24.675 124.64375 23.846874 125.425Q23.034374 126.20625 21.784374 126.20625Q20.659374 126.20625 19.909374 125.53438Q19.159374 124.84688 19.05 123.78438ZM26.6125 126.05L26.6125 124.84688L27.815624 124.84688L27.815624 126.05Q27.815624 126.70625 27.58125 127.1125Q27.346874 127.53438 26.846874 127.75313L26.55 127.3Q26.878124 127.15938 27.034374 126.8625Q27.190624 126.58125 27.221874 126.05L26.6125 126.05ZM29.05 121.81563Q29.05 120.28438 29.3625 119.3625Q29.675 118.425 30.284374 117.925Q30.909374 117.425 31.846874 117.425Q32.534374 117.425 33.05 117.70625Q33.58125 117.9875 33.925 118.51875Q34.26875 119.03438 34.45625 119.78438Q34.64375 120.53438 34.64375 121.81563Q34.64375 123.33125 34.33125 124.25313Q34.034374 125.175 33.409374 125.69063Q32.8 126.19063 31.846874 126.19063Q30.6125 126.19063 29.89375 125.3Q29.05 124.2375 29.05 121.81563ZM30.128124 121.81563Q30.128124 123.925 30.628124 124.62813Q31.128124 125.33125 31.846874 125.33125Q32.58125 125.33125 33.065624 124.62813Q33.565624 123.925 33.565624 121.81563Q33.565624 119.69063 33.065624 119.00313Q32.58125 118.3 31.83125 118.3Q31.1125 118.3 30.675 118.90938Q30.128124 119.69063 30.128124 121.81563ZM36.05 121.81563Q36.05 120.28438 36.3625 119.3625Q36.675 118.425 37.284374 117.925Q37.909374 117.425 38.846874 117.425Q39.534374 117.425 40.05 117.70625Q40.58125 117.9875 40.925 118.51875Q41.26875 119.03438 41.45625 119.78438Q41.64375 120.53438 41.64375 121.81563Q41.64375 123.33125 41.33125 124.25313Q41.034374 125.175 40.409374 125.69063Q39.8 126.19063 38.846874 126.19063Q37.6125 126.19063 36.89375 125.3Q36.05 124.2375 36.05 121.81563ZM37.128124 121.81563Q37.128124 123.925 37.628124 124.62813Q38.128124 125.33125 38.846874 125.33125Q39.58125 125.33125 40.065624 124.62813Q40.565624 123.925 40.565624 121.81563Q40.565624 119.69063 40.065624 119.00313Q39.58125 118.3 38.83125 118.3Q38.1125 118.3 37.675 118.90938Q37.128124 119.69063 37.128124 121.81563ZM43.05 121.81563Q43.05 120.28438 43.3625 119.3625Q43.675 118.425 44.284374 117.925Q44.909374 117.425 45.846874 117.425Q46.534374 117.425 47.05 117.70625Q47.58125 117.9875 47.925 118.51875Q48.26875 119.03438 48.45625 119.78438Q48.64375 120.53438 48.64375 121.81563Q48.64375 123.33125 48.33125 124.25313Q48.034374 125.175 47.409374 125.69063Q46.8 126.19063 45.846874 126.19063Q44.6125 126.19063 43.89375 125.3Q43.05 124.2375 43.05 121.81563ZM44.128124 121.81563Q44.128124 123.925 44.628124 124.62813Q45.128124 125.33125 45.846874 125.33125Q46.58125 125.33125 47.065624 124.62813Q47.565624 123.925 47.565624 121.81563Q47.565624 119.69063 47.065624 119.00313Q46.58125 118.3 45.83125 118.3Q45.1125 118.3 44.675 118.90938Q44.128124 119.69063 44.128124 121.81563ZM50.6125 126.05L50.6125 124.84688L51.815624 124.84688L51.815624 126.05Q51.815624 126.70625 51.58125 127.1125Q51.346874 127.53438 50.846874 127.75313L50.55 127.3Q50.878124 127.15938 51.034374 126.8625Q51.190624 126.58125 51.221874 126.05L50.6125 126.05ZM53.05 121.81563Q53.05 120.28438 53.3625 119.3625Q53.675 118.425 54.284374 117.925Q54.909374 117.425 55.846874 117.425Q56.534374 117.425 57.05 117.70625Q57.58125 117.9875 57.925 118.51875Q58.26875 119.03438 58.45625 119.78438Q58.64375 120.53438 58.64375 121.81563Q58.64375 123.33125 58.33125 124.25313Q58.034374 125.175 57.409374 125.69063Q56.8 126.19063 55.846874 126.19063Q54.6125 126.19063 53.89375 125.3Q53.05 124.2375 53.05 121.81563ZM54.128124 121.81563Q54.128124 123.925 54.628124 124.62813Q55.128124 125.33125 55.846874 125.33125Q56.58125 125.33125 57.065624 124.62813Q57.565624 123.925 57.565624 121.81563Q57.565624 119.69063 57.065624 119.00313Q56.58125 118.3 55.83125 118.3Q55.1125 118.3 54.675 118.90938Q54.128124 119.69063 54.128124 121.81563ZM60.05 121.81563Q60.05 120.28438 60.3625 119.3625Q60.675 118.425 61.284374 117.925Q61.909374 117.425 62.846874 117.425Q63.534374 117.425 64.05 117.70625Q64.58125 117.9875 64.925 118.51875Q65.26875 119.03438 65.45625 119.78438Q65.64375 120.53438 65.64375 121.81563Q65.64375 123.33125 65.33125 124.25313Q65.03438 125.175 64.40938 125.69063Q63.8 126.19063 62.846874 126.19063Q61.6125 126.19063 60.89375 125.3Q60.05 124.2375 60.05 121.81563ZM61.128124 121.81563Q61.128124 123.925 61.628124 124.62813Q62.128124 125.33125 62.846874 125.33125Q63.58125 125.33125 64.06563 124.62813Q64.56563 123.925 64.56563 121.81563Q64.56563 119.69063 64.06563 119.00313Q63.58125 118.3 62.83125 118.3Q62.1125 118.3 61.675 118.90938Q61.128124 119.69063 61.128124 121.81563ZM67.05 121.81563Q67.05 120.28438 67.3625 119.3625Q67.675 118.425 68.28438 117.925Q68.90938 117.425 69.84688 117.425Q70.53438 117.425 71.05 117.70625Q71.58125 117.9875 71.925 118.51875Q72.26875 119.03438 72.45625 119.78438Q72.64375 120.53438 72.64375 121.81563Q72.64375 123.33125 72.33125 124.25313Q72.03438 125.175 71.40938 125.69063Q70.8 126.19063 69.84688 126.19063Q68.6125 126.19063 67.89375 125.3Q67.05 124.2375 67.05 121.81563ZM68.12813 121.81563Q68.12813 123.925 68.62813 124.62813Q69.12813 125.33125 69.84688 125.33125Q70.58125 125.33125 71.06563 124.62813Q71.56563 123.925 71.56563 121.81563Q71.56563 119.69063 71.06563 119.00313Q70.58125 118.3 69.83125 118.3Q69.1125 118.3 68.675 118.90938Q68.12813 119.69063 68.12813 121.81563ZM74.6125 126.05L74.6125 124.84688L75.81563 124.84688L75.81563 126.05Q75.81563 126.70625 75.58125 127.1125Q75.34688 127.53438 74.84688 127.75313L74.55 127.3Q74.87813 127.15938 75.03438 126.8625Q75.19063 126.58125 75.22188 126.05L74.6125 126.05ZM77.05 121.81563Q77.05 120.28438 77.3625 119.3625Q77.675 118.425 78.28438 117.925Q78.90938 117.425 79.84688 117.425Q80.53438 117.425 81.05 117.70625Q81.58125 117.9875 81.925 118.51875Q82.26875 119.03438 82.45625 119.78438Q82.64375 120.53438 82.64375 121.81563Q82.64375 123.33125 82.33125 124.25313Q82.03438 125.175 81.40938 125.69063Q80.8 126.19063 79.84688 126.19063Q78.6125 126.19063 77.89375 125.3Q77.05 124.2375 77.05 121.81563ZM78.12813 121.81563Q78.12813 123.925 78.62813 124.62813Q79.12813 125.33125 79.84688 125.33125Q80.58125 125.33125 81.06563 124.62813Q81.56563 123.925 81.56563 121.81563Q81.56563 119.69063 81.06563 119.00313Q80.58125 118.3 79.83125 118.3Q79.1125 118.3 78.675 118.90938Q78.12813 119.69063 78.12813 121.81563ZM84.05 121.81563Q84.05 120.28438 84.3625 119.3625Q84.675 118.425 85.28438 117.925Q85.90938 117.425 86.84688 117.425Q87.53438 117.425 88.05 117.70625Q88.58125 117.9875 88.925 118.51875Q89.26875 119.03438 89.45625 119.78438Q89.64375 120.53438 89.64375 121.81563Q89.64375 123.33125 89.33125 124.25313Q89.03438 125.175 88.40938 125.69063Q87.8 126.19063 86.84688 126.19063Q85.6125 126.19063 84.89375 125.3Q84.05 124.2375 84.05 121.81563ZM85.12813 121.81563Q85.12813 123.925 85.62813 124.62813Q86.12813 125.33125 86.84688 125.33125Q87.58125 125.33125 88.06563 124.62813Q88.56563 123.925 88.56563 121.81563Q88.56563 119.69063 88.06563 119.00313Q87.58125 118.3 86.83125 118.3Q86.1125 118.3 85.675 118.90938Q85.12813 119.69063 85.12813 121.81563ZM91.05 121.81563Q91.05 120.28438 91.3625 119.3625Q91.675 118.425 92.28438 117.925Q92.90938 117.425 93.84688 117.425Q94.53438 117.425 95.05 117.70625Q95.58125 117.9875 95.925 118.51875Q96.26875 119.03438 96.45625 119.78438Q96.64375 120.53438 96.64375 121.81563Q96.64375 123.33125 96.33125 124.25313Q96.03438 125.175 95.40938 125.69063Q94.8 126.19063 93.84688 126.19063Q92.6125 126.19063 91.89375 125.3Q91.05 124.2375 91.05 121.81563ZM92.12813 121.81563Q92.12813 123.925 92.62813 124.62813Q93.12813 125.33125 93.84688 125.33125Q94.58125 125.33125 95.06563 124.62813Q95.56563 123.925 95.56563 121.81563Q95.56563 119.69063 95.06563 119.00313Q94.58125 118.3 93.83125 118.3Q93.1125 118.3 92.675 118.90938Q92.12813 119.69063 92.12813 121.81563Z" fill-rule="nonzero"/><path fill="#000000" d="M22.425 55.916668L22.425 53.854168L18.70625 53.854168L18.70625 52.885418L22.628124 47.322918L23.4875 47.322918L23.4875 52.885418L24.64375 52.885418L24.64375 53.854168L23.4875 53.854168L23.4875 55.916668L22.425 55.916668ZM22.425 52.885418L22.425 49.026043L19.7375 52.885418L22.425 52.885418ZM26.6125 55.916668L26.6125 54.713543L27.815624 54.713543L27.815624 55.916668Q27.815624 56.572918 27.58125 56.979168Q27.346874 57.401043 26.846874 57.619793L26.55 57.166668Q26.878124 57.026043 27.034374 56.729168Q27.190624 56.447918 27.221874 55.916668L26.6125 55.916668ZM29.05 51.682293Q29.05 50.151043 29.3625 49.229168Q29.675 48.291668 30.284374 47.791668Q30.909374 47.291668 31.846874 47.291668Q32.534374 47.291668 33.05 47.572918Q33.58125 47.854168 33.925 48.385418Q34.26875 48.901043 34.45625 49.651043Q34.64375 50.401043 34.64375 51.682293Q34.64375 53.197918 34.33125 54.119793Q34.034374 55.041668 33.409374 55.557293Q32.8 56.057293 31.846874 56.057293Q30.6125 56.057293 29.89375 55.166668Q29.05 54.104168 29.05 51.682293ZM30.128124 51.682293Q30.128124 53.791668 30.628124 54.494793Q31.128124 55.197918 31.846874 55.197918Q32.58125 55.197918 33.065624 54.494793Q33.565624 53.791668 33.565624 51.682293Q33.565624 49.557293 33.065624 48.869793Q32.58125 48.166668 31.83125 48.166668Q31.1125 48.166668 30.675 48.776043Q30.128124 49.557293 30.128124 51.682293ZM36.05 51.682293Q36.05 50.151043 36.3625 49.229168Q36.675 48.291668 37.284374 47.791668Q37.909374 47.291668 38.846874 47.291668Q39.534374 47.291668 40.05 47.572918Q40.58125 47.854168 40.925 48.385418Q41.26875 48.901043 41.45625 49.651043Q41.64375 50.401043 41.64375 51.682293Q41.64375 53.197918 41.33125 54.119793Q41.034374 55.041668 40.409374 55.557293Q39.8 56.057293 38.846874 56.057293Q37.6125 56.057293 36.89375 55.166668Q36.05 54.104168 36.05 51.682293ZM37.128124 51.682293Q37.128124 53.791668 37.628124 54.494793Q38.128124 55.197918 38.846874 55.197918Q39.58125 55.197918 40.065624 54.494793Q40.565624 53.791668 40.565624 51.682293Q40.565624 49.557293 40.065624 48.869793Q39.58125 48.166668 38.83125 48.166668Q38.1125 48.166668 37.675 48.776043Q37.128124 49.557293 37.128124 51.682293ZM43.05 51.682293Q43.05 50.151043 43.3625 49.229168Q43.675 48.291668 44.284374 47.791668Q44.909374 47.291668 45.846874 47.291668Q46.534374 47.291668 47.05 47.572918Q47.58125 47.854168 47.925 48.385418Q48.26875 48.901043 48.45625 49.651043Q48.64375 50.401043 48.64375 51.682293Q48.64375 53.197918 48.33125 54.119793Q48.034374 55.041668 47.409374 55.557293Q46.8 56.057293 45.846874 56.057293Q44.6125 56.057293 43.89375 55.166668Q43.05 54.104168 43.05 51.682293ZM44.128124 51.682293Q44.128124 53.791668 44.628124 54.494793Q45.128124 55.197918 45.846874 55.197918Q46.58125 55.197918 47.065624 54.494793Q47.565624 53.791668 47.565624 51.682293Q47.565624 49.557293 47.065624 48.869793Q46.58125 48.166668 45.83125 48.166668Q45.1125 48.166668 44.675 48.776043Q44.128124 49.557293 44.128124 51.682293ZM50.6125 55.916668L50.6125 54.713543L51.815624 54.713543L51.815624 55.916668Q51.815624 56.572918 51.58125 56.979168Q51.346874 57.401043 50.846874 57.619793L50.55 57.166668Q50.878124 57.026043 51.034374 56.729168Q51.190624 56.447918 51.221874 55.916668L50.6125 55.916668ZM53.05 51.682293Q53.05 50.151043 53.3625 49.229168Q53.675 48.291668 54.284374 47.791668Q54.909374 47.291668 55.846874 47.291668Q56.534374 47.291668 57.05 47.572918Q57.58125 47.854168 57.925 48.385418Q58.26875 48.901043 58.45625 49.651043Q58.64375 50.401043 58.64375 51.682293Q58.64375 53.197918 58.33125 54.119793Q58.034374 55.041668 57.409374 55.557293Q56.8 56.057293 55.846874 56.057293Q54.6125 56.057293 53.89375 55.166668Q53.05 54.104168 53.05 51.682293ZM54.128124 51.682293Q54.128124 53.791668 54.628124 54.494793Q55.128124 55.197918 55.846874 55.197918Q56.58125 55.197918 57.065624 54.494793Q57.565624 53.791668 57.565624 51.682293Q57.565624 49.557293 57.065624 48.869793Q56.58125 48.166668 55.83125 48.166668Q55.1125 48.166668 54.675 48.776043Q54.128124 49.557293 54.128124 51.682293ZM60.05 51.682293Q60.05 50.151043 60.3625 49.229168Q60.675 48.291668 61.284374 47.791668Q61.909374 47.291668 62.846874 47.291668Q63.534374 47.291668 64.05 47.572918Q64.58125 47.854168 64.925 48.385418Q65.26875 48.901043 65.45625 49.651043Q65.64375 50.401043 65.64375 51.682293Q65.64375 53.197918 65.33125 54.119793Q65.03438 55.041668 64.40938 55.557293Q63.8 56.057293 62.846874 56.057293Q61.6125 56.057293 60.89375 55.166668Q60.05 54.104168 60.05 51.682293ZM61.128124 51.682293Q61.128124 53.791668 61.628124 54.494793Q62.128124 55.197918 62.846874 55.197918Q63.58125 55.197918 64.06563 54.494793Q64.56563 53.791668 64.56563 51.682293Q64.56563 49.557293 64.06563 48.869793Q63.58125 48.166668 62.83125 48.166668Q62.1125 48.166668 61.675 48.776043Q61.128124 49.557293 61.128124 51.682293ZM67.05 51.682293Q67.05 50.151043 67.3625 49.229168Q67.675 48.291668 68.28438 47.791668Q68.90938 47.291668 69.84688 47.291668Q70.53438 47.291668 71.05 47.572918Q71.58125 47.854168 71.925 48.385418Q72.26875 48.901043 72.45625 49.651043Q72.64375 50.401043 72.64375 51.682293Q72.64375 53.197918 72.33125 54.119793Q72.03438 55.041668 71.40938 55.557293Q70.8 56.057293 69.84688 56.057293Q68.6125 56.057293 67.89375 55.166668Q67.05 54.104168 67.05 51.682293ZM68.12813 51.682293Q68.12813 53.791668 68.62813 54.494793Q69.12813 55.197918 69.84688 55.197918Q70.58125 55.197918 71.06563 54.494793Q71.56563 53.791668 71.56563 51.682293Q71.56563 49.557293 71.06563 48.869793Q70.58125 48.166668 69.83125 48.166668Q69.1125 48.166668 68.675 48.776043Q68.12813 49.557293 68.12813 51.682293ZM74.6125 55.916668L74.6125 54.713543L75.81563 54.713543L75.81563 55.916668Q75.81563 56.572918 75.58125 56.979168Q75.34688 57.401043 74.84688 57.619793L74.55 57.166668Q74.87813 57.026043 75.03438 56.729168Q75.19063 56.447918 75.22188 55.916668L74.6125 55.916668ZM77.05 51.682293Q77.05 50.151043 77.3625 49.229168Q77.675 48.291668 78.28438 47.791668Q78.90938 47.291668 79.84688 47.291668Q80.53438 47.291668 81.05 47.572918Q81.58125 47.854168 81.925 48.385418Q82.26875 48.901043 82.45625 49.651043Q82.64375 50.401043 82.64375 51.682293Q82.64375 53.197918 82.33125 54.119793Q82.03438 55.041668 81.40938 55.557293Q80.8 56.057293 79.84688 56.057293Q78.6125 56.057293 77.89375 55.166668Q77.05 54.104168 77.05 51.682293ZM78.12813 51.682293Q78.12813 53.791668 78.62813 54.494793Q79.12813 55.197918 79.84688 55.197918Q80.58125 55.197918 81.06563 54.494793Q81.56563 53.791668 81.56563 51.682293Q81.56563 49.557293 81.06563 48.869793Q80.58125 48.166668 79.83125 48.166668Q79.1125 48.166668 78.675 48.776043Q78.12813 49.557293 78.12813 51.682293ZM84.05 51.682293Q84.05 50.151043 84.3625 49.229168Q84.675 48.291668 85.28438 47.791668Q85.90938 47.291668 86.84688 47.291668Q87.53438 47.291668 88.05 47.572918Q88.58125 47.854168 88.925 48.385418Q89.26875 48.901043 89.45625 49.651043Q89.64375 50.401043 89.64375 51.682293Q89.64375 53.197918 89.33125 54.119793Q89.03438 55.041668 88.40938 55.557293Q87.8 56.057293 86.84688 56.057293Q85.6125 56.057293 84.89375 55.166668Q84.05 54.104168 84.05 51.682293ZM85.12813 51.682293Q85.12813 53.791668 85.62813 54.494793Q86.12813 55.197918 86.84688 55.197918Q87.58125 55.197918 88.06563 54.494793Q88.56563 53.791668 88.56563 51.682293Q88.56563 49.557293 88.06563 48.869793Q87.58125 48.166668 86.83125 48.166668Q86.1125 48.166668 85.675 48.776043Q85.12813 49.557293 85.12813 51.682293ZM91.05 51.682293Q91.05 50.151043 91.3625 49.229168Q91.675 48.291668 92.28438 47.791668Q92.90938 47.291668 93.84688 47.291668Q94.53438 47.291668 95.05 47.572918Q95.58125 47.854168 95.925 48.385418Q96.26875 48.901043 96.45625 49.651043Q96.64375 50.401043 96.64375 51.682293Q96.64375 53.197918 96.33125 54.119793Q96.03438 55.041668 95.40938 55.557293Q94.8 56.057293 93.84688 56.057293Q92.6125 56.057293 91.89375 55.166668Q91.05 54.104168 91.05 51.682293ZM92.12813 51.682293Q92.12813 53.791668 92.62813 54.494793Q93.12813 55.197918 93.84688 55.197918Q94.58125 55.197918 95.06563 54.494793Q95.56563 53.791668 95.56563 51.682293Q95.56563 49.557293 95.06563 48.869793Q94.58125 48.166668 93.83125 48.166668Q93.1125 48.166668 92.675 48.776043Q92.12813 49.557293 92.12813 51.682293Z" fill-rule="nonzero"/><path fill="#000000" d="M171.71368 348.4344L171.71368 349.45L166.02618 349.45Q166.02618 349.075 166.15118 348.71564Q166.36993 348.1375 166.83868 347.575Q167.32306 347.0125 168.22931 346.27814Q169.63556 345.1219 170.11993 344.45Q170.61993 343.77814 170.61993 343.1844Q170.61993 342.5594 170.16681 342.1375Q169.71368 341.7 168.99493 341.7Q168.22931 341.7 167.77618 342.15314Q167.32306 342.60626 167.30743 343.41876L166.22931 343.3094Q166.33868 342.09064 167.05743 341.46564Q167.79181 340.825 169.02618 340.825Q170.26056 340.825 170.97931 341.5125Q171.69806 342.2 171.69806 343.21564Q171.69806 343.73126 171.47931 344.23126Q171.27618 344.71564 170.77618 345.27814Q170.29181 345.825 169.16681 346.77814Q168.21368 347.575 167.93243 347.8719Q167.66681 348.15314 167.49493 348.4344L171.71368 348.4344ZM173.16681 345.21564Q173.16681 343.6844 173.47931 342.7625Q173.79181 341.825 174.40118 341.325Q175.02618 340.825 175.96368 340.825Q176.65118 340.825 177.16681 341.10626Q177.69806 341.3875 178.04181 341.91876Q178.38556 342.4344 178.57306 343.1844Q178.76056 343.9344 178.76056 345.21564Q178.76056 346.73126 178.44806 347.65314Q178.15118 348.575 177.52618 349.09064Q176.91681 349.59064 175.96368 349.59064Q174.72931 349.59064 174.01056 348.7Q173.16681 347.6375 173.16681 345.21564ZM174.24493 345.21564Q174.24493 347.325 174.74493 348.02814Q175.24493 348.73126 175.96368 348.73126Q176.69806 348.73126 177.18243 348.02814Q177.68243 347.325 177.68243 345.21564Q177.68243 343.09064 177.18243 342.40314Q176.69806 341.7 175.94806 341.7Q175.22931 341.7 174.79181 342.3094Q174.24493 343.09064 174.24493 345.21564ZM180.16681 345.21564Q180.16681 343.6844 180.47931 342.7625Q180.79181 341.825 181.40118 341.325Q182.02618 340.825 182.96368 340.825Q183.65118 340.825 184.16681 341.10626Q184.69806 341.3875 185.04181 341.91876Q185.38556 342.4344 185.57306 343.1844Q185.76056 343.9344 185.76056 345.21564Q185.76056 346.73126 185.44806 347.65314Q185.15118 348.575 184.52618 349.09064Q183.91681 349.59064 182.96368 349.59064Q181.72931 349.59064 181.01056 348.7Q180.16681 347.6375 180.16681 345.21564ZM181.24493 345.21564Q181.24493 347.325 181.74493 348.02814Q182.24493 348.73126 182.96368 348.73126Q183.69806 348.73126 184.18243 348.02814Q184.68243 347.325 184.68243 345.21564Q184.68243 343.09064 184.18243 342.40314Q183.69806 341.7 182.94806 341.7Q182.22931 341.7 181.79181 342.3094Q181.24493 343.09064 181.24493 345.21564ZM187.16681 345.21564Q187.16681 343.6844 187.47931 342.7625Q187.79181 341.825 188.40118 341.325Q189.02618 340.825 189.96368 340.825Q190.65118 340.825 191.16681 341.10626Q191.69806 341.3875 192.04181 341.91876Q192.38556 342.4344 192.57306 343.1844Q192.76056 343.9344 192.76056 345.21564Q192.76056 346.73126 192.44806 347.65314Q192.15118 348.575 191.52618 349.09064Q190.91681 349.59064 189.96368 349.59064Q188.72931 349.59064 188.01056 348.7Q187.16681 347.6375 187.16681 345.21564ZM188.24493 345.21564Q188.24493 347.325 188.74493 348.02814Q189.24493 348.73126 189.96368 348.73126Q190.69806 348.73126 191.18243 348.02814Q191.68243 347.325 191.68243 345.21564Q191.68243 343.09064 191.18243 342.40314Q190.69806 341.7 189.94806 341.7Q189.22931 341.7 188.79181 342.3094Q188.24493 343.09064 188.24493 345.21564ZM194.16681 345.21564Q194.16681 343.6844 194.47931 342.7625Q194.79181 341.825 195.40118 341.325Q196.02618 340.825 196.96368 340.825Q197.65118 340.825 198.16681 341.10626Q198.69806 341.3875 199.04181 341.91876Q199.38556 342.4344 199.57306 343.1844Q199.76056 343.9344 199.76056 345.21564Q199.76056 346.73126 199.44806 347.65314Q199.15118 348.575 198.52618 349.09064Q197.91681 349.59064 196.96368 349.59064Q195.72931 349.59064 195.01056 348.7Q194.16681 347.6375 194.16681 345.21564ZM195.24493 345.21564Q195.24493 347.325 195.74493 348.02814Q196.24493 348.73126 196.96368 348.73126Q197.69806 348.73126 198.18243 348.02814Q198.68243 347.325 198.68243 345.21564Q198.68243 343.09064 198.18243 342.40314Q197.69806 341.7 196.94806 341.7Q196.22931 341.7 195.79181 342.3094Q195.24493 343.09064 195.24493 345.21564Z" fill-rule="nonzero"/><path fill="#000000" d="M249.19844 349.45L249.19844 347.3875L245.47969 347.3875L245.47969 346.41876L249.40157 340.85626L250.26094 340.85626L250.26094 346.41876L251.41719 346.41876L251.41719 347.3875L250.26094 347.3875L250.26094 349.45L249.19844 349.45ZM249.19844 346.41876L249.19844 342.5594L246.51094 346.41876L249.19844 346.41876ZM252.82344 345.21564Q252.82344 343.6844 253.13594 342.7625Q253.44844 341.825 254.05782 341.325Q254.68282 340.825 255.62032 340.825Q256.3078 340.825 256.82343 341.10626Q257.35468 341.3875 257.69843 341.91876Q258.04218 342.4344 258.22968 343.1844Q258.41718 343.9344 258.41718 345.21564Q258.41718 346.73126 258.10468 347.65314Q257.8078 348.575 257.1828 349.09064Q256.57343 349.59064 255.62032 349.59064Q254.38594 349.59064 253.66719 348.7Q252.82344 347.6375 252.82344 345.21564ZM253.90157 345.21564Q253.90157 347.325 254.40157 348.02814Q254.90157 348.73126 255.62032 348.73126Q256.35468 348.73126 256.83905 348.02814Q257.33905 347.325 257.33905 345.21564Q257.33905 343.09064 256.83905 342.40314Q256.35468 341.7 255.60469 341.7Q254.88594 341.7 254.44844 342.3094Q253.90157 343.09064 253.90157 345.21564ZM259.82343 345.21564Q259.82343 343.6844 260.13593 342.7625Q260.44843 341.825 261.0578 341.325Q261.6828 340.825 262.6203 340.825Q263.3078 340.825 263.82343 341.10626Q264.35468 341.3875 264.69843 341.91876Q265.04218 342.4344 265.22968 343.1844Q265.41718 343.9344 265.41718 345.21564Q265.41718 346.73126 265.10468 347.65314Q264.8078 348.575 264.1828 349.09064Q263.57343 349.59064 262.6203 349.59064Q261.38593 349.59064 260.66718 348.7Q259.82343 347.6375 259.82343 345.21564ZM260.90155 345.21564Q260.90155 347.325 261.40155 348.02814Q261.90155 348.73126 262.6203 348.73126Q263.35468 348.73126 263.83905 348.02814Q264.33905 347.325 264.33905 345.21564Q264.33905 343.09064 263.83905 342.40314Q263.35468 341.7 262.60468 341.7Q261.88593 341.7 261.44843 342.3094Q260.90155 343.09064 260.90155 345.21564ZM266.82343 345.21564Q266.82343 343.6844 267.13593 342.7625Q267.44843 341.825 268.0578 341.325Q268.6828 340.825 269.6203 340.825Q270.3078 340.825 270.82343 341.10626Q271.35468 341.3875 271.69843 341.91876Q272.04218 342.4344 272.22968 343.1844Q272.41718 343.9344 272.41718 345.21564Q272.41718 346.73126 272.10468 347.65314Q271.8078 348.575 271.1828 349.09064Q270.57343 349.59064 269.6203 349.59064Q268.38593 349.59064 267.66718 348.7Q266.82343 347.6375 266.82343 345.21564ZM267.90155 345.21564Q267.90155 347.325 268.40155 348.02814Q268.90155 348.73126 269.6203 348.73126Q270.35468 348.73126 270.83905 348.02814Q271.33905 347.325 271.33905 345.21564Q271.33905 343.09064 270.83905 342.40314Q270.35468 341.7 269.60468 341.7Q268.88593 341.7 268.44843 342.3094Q267.90155 343.09064 267.90155 345.21564ZM273.82343 345.21564Q273.82343 343.6844 274.13593 342.7625Q274.44843 341.825 275.0578 341.325Q275.6828 340.825 276.6203 340.825Q277.3078 340.825 277.82343 341.10626Q278.35468 341.3875 278.69843 341.91876Q279.04218 342.4344 279.22968 343.1844Q279.41718 343.9344 279.41718 345.21564Q279.41718 346.73126 279.10468 347.65314Q278.8078 348.575 278.1828 349.09064Q277.57343 349.59064 276.6203 349.59064Q275.38593 349.59064 274.66718 348.7Q273.82343 347.6375 273.82343 345.21564ZM274.90155 345.21564Q274.90155 347.325 275.40155 348.02814Q275.90155 348.73126 276.6203 348.73126Q277.35468 348.73126 277.83905 348.02814Q278.33905 347.325 278.33905 345.21564Q278.33905 343.09064 277.83905 342.40314Q277.35468 341.7 276.60468 341.7Q275.88593 341.7 275.44843 342.3094Q274.90155 343.09064 274.90155 345.21564Z" fill-rule="nonzero"/><path fill="#000000" d="M330.94882 342.96564L329.90195 343.04376Q329.76132 342.41876 329.51132 342.1375Q329.07382 341.6844 328.44882 341.6844Q327.94882 341.6844 327.5582 341.96564Q327.07382 342.34064 326.77695 343.04376Q326.4957 343.73126 326.48007 345.0125Q326.85507 344.4344 327.40195 344.15314Q327.96445 343.8719 328.57382 343.8719Q329.6207 343.8719 330.35507 344.65314Q331.10507 345.4344 331.10507 346.65314Q331.10507 347.46564 330.7457 348.16876Q330.40195 348.85626 329.79257 349.23126Q329.1832 349.59064 328.41757 349.59064Q327.08945 349.59064 326.26132 348.6219Q325.4332 347.65314 325.4332 345.4344Q325.4332 342.9344 326.35507 341.8094Q327.15195 340.825 328.51132 340.825Q329.52695 340.825 330.16757 341.40314Q330.82382 341.96564 330.94882 342.96564ZM326.65195 346.66876Q326.65195 347.21564 326.8707 347.71564Q327.10507 348.2 327.51132 348.46564Q327.9332 348.73126 328.40195 348.73126Q329.0582 348.73126 329.54257 348.2Q330.02695 347.65314 330.02695 346.73126Q330.02695 345.84064 329.54257 345.325Q329.07382 344.8094 328.35507 344.8094Q327.63632 344.8094 327.13632 345.325Q326.65195 345.84064 326.65195 346.66876ZM332.48007 345.21564Q332.48007 343.6844 332.79257 342.7625Q333.10507 341.825 333.71445 341.325Q334.33945 340.825 335.27695 340.825Q335.96445 340.825 336.48007 341.10626Q337.01132 341.3875 337.35507 341.91876Q337.69882 342.4344 337.88632 343.1844Q338.07382 343.9344 338.07382 345.21564Q338.07382 346.73126 337.76132 347.65314Q337.46445 348.575 336.83945 349.09064Q336.23007 349.59064 335.27695 349.59064Q334.04257 349.59064 333.32382 348.7Q332.48007 347.6375 332.48007 345.21564ZM333.5582 345.21564Q333.5582 347.325 334.0582 348.02814Q334.5582 348.73126 335.27695 348.73126Q336.01132 348.73126 336.4957 348.02814Q336.9957 347.325 336.9957 345.21564Q336.9957 343.09064 336.4957 342.40314Q336.01132 341.7 335.26132 341.7Q334.54257 341.7 334.10507 342.3094Q333.5582 343.09064 333.5582 345.21564ZM339.48007 345.21564Q339.48007 343.6844 339.79257 342.7625Q340.10507 341.825 340.71445 341.325Q341.33945 340.825 342.27695 340.825Q342.96445 340.825 343.48007 341.10626Q344.01132 341.3875 344.35507 341.91876Q344.69882 342.4344 344.88632 343.1844Q345.07382 343.9344 345.07382 345.21564Q345.07382 346.73126 344.76132 347.65314Q344.46445 348.575 343.83945 349.09064Q343.23007 349.59064 342.27695 349.59064Q341.04257 349.59064 340.32382 348.7Q339.48007 347.6375 339.48007 345.21564ZM340.5582 345.21564Q340.5582 347.325 341.0582 348.02814Q341.5582 348.73126 342.27695 348.73126Q343.01132 348.73126 343.4957 348.02814Q343.9957 347.325 343.9957 345.21564Q343.9957 343.09064 343.4957 342.40314Q343.01132 341.7 342.26132 341.7Q341.54257 341.7 341.10507 342.3094Q340.5582 343.09064 340.5582 345.21564ZM346.48007 345.21564Q346.48007 343.6844 346.79257 342.7625Q347.10507 341.825 347.71445 341.325Q348.33945 340.825 349.27695 340.825Q349.96445 340.825 350.48007 341.10626Q351.01132 341.3875 351.35507 341.91876Q351.69882 342.4344 351.88632 343.1844Q352.07382 343.9344 352.07382 345.21564Q352.07382 346.73126 351.76132 347.65314Q351.46445 348.575 350.83945 349.09064Q350.23007 349.59064 349.27695 349.59064Q348.04257 349.59064 347.32382 348.7Q346.48007 347.6375 346.48007 345.21564ZM347.5582 345.21564Q347.5582 347.325 348.0582 348.02814Q348.5582 348.73126 349.27695 348.73126Q350.01132 348.73126 350.4957 348.02814Q350.9957 347.325 350.9957 345.21564Q350.9957 343.09064 350.4957 342.40314Q350.01132 341.7 349.26132 341.7Q348.54257 341.7 348.10507 342.3094Q347.5582 343.09064 347.5582 345.21564ZM353.48007 345.21564Q353.48007 343.6844 353.79257 342.7625Q354.10507 341.825 354.71445 341.325Q355.33945 340.825 356.27695 340.825Q356.96445 340.825 357.48007 341.10626Q358.01132 341.3875 358.35507 341.91876Q358.69882 342.4344 358.88632 343.1844Q359.07382 343.9344 359.07382 345.21564Q359.07382 346.73126 358.76132 347.65314Q358.46445 348.575 357.83945 349.09064Q357.23007 349.59064 356.27695 349.59064Q355.04257 349.59064 354.32382 348.7Q353.48007 347.6375 353.48007 345.21564ZM354.5582 345.21564Q354.5582 347.325 355.0582 348.02814Q355.5582 348.73126 356.27695 348.73126Q357.01132 348.73126 357.4957 348.02814Q357.9957 347.325 357.9957 345.21564Q357.9957 343.09064 357.4957 342.40314Q357.01132 341.7 356.26132 341.7Q355.54257 341.7 355.10507 342.3094Q354.5582 343.09064 354.5582 345.21564Z" fill-rule="nonzero"/><path fill="#000000" d="M406.76172 344.79376Q406.10547 344.54376 405.77734 344.10626Q405.46484 343.65314 405.46484 343.04376Q405.46484 342.10626 406.13672 341.46564Q406.82422 340.825 407.9336 340.825Q409.0586 340.825 409.7461 341.48126Q410.4336 342.1375 410.4336 343.075Q410.4336 343.66876 410.1211 344.10626Q409.8086 344.54376 409.16797 344.79376Q409.96484 345.04376 410.3711 345.6219Q410.77734 346.2 410.77734 346.9969Q410.77734 348.09064 409.9961 348.84064Q409.23047 349.59064 407.94922 349.59064Q406.6836 349.59064 405.90234 348.84064Q405.1211 348.09064 405.1211 346.96564Q405.1211 346.1219 405.54297 345.5594Q405.98047 344.9969 406.76172 344.79376ZM406.54297 342.9969Q406.54297 343.60626 406.9336 343.9969Q407.33984 344.3875 407.96484 344.3875Q408.57422 344.3875 408.96484 344.0125Q409.35547 343.6219 409.35547 343.0594Q409.35547 342.48126 408.94922 342.09064Q408.54297 341.6844 407.94922 341.6844Q407.33984 341.6844 406.9336 342.075Q406.54297 342.46564 406.54297 342.9969ZM406.21484 346.96564Q406.21484 347.41876 406.41797 347.84064Q406.63672 348.2625 407.0586 348.4969Q407.48047 348.73126 407.96484 348.73126Q408.71484 348.73126 409.19922 348.2469Q409.69922 347.7625 409.69922 347.0125Q409.69922 346.2469 409.19922 345.7469Q408.69922 345.2469 407.9336 345.2469Q407.1836 345.2469 406.69922 345.7469Q406.21484 346.23126 406.21484 346.96564ZM412.13672 345.21564Q412.13672 343.6844 412.44922 342.7625Q412.76172 341.825 413.3711 341.325Q413.9961 340.825 414.9336 340.825Q415.6211 340.825 416.13672 341.10626Q416.66797 341.3875 417.01172 341.91876Q417.35547 342.4344 417.54297 343.1844Q417.73047 343.9344 417.73047 345.21564Q417.73047 346.73126 417.41797 347.65314Q417.1211 348.575 416.4961 349.09064Q415.88672 349.59064 414.9336 349.59064Q413.69922 349.59064 412.98047 348.7Q412.13672 347.6375 412.13672 345.21564ZM413.21484 345.21564Q413.21484 347.325 413.71484 348.02814Q414.21484 348.73126 414.9336 348.73126Q415.66797 348.73126 416.15234 348.02814Q416.65234 347.325 416.65234 345.21564Q416.65234 343.09064 416.15234 342.40314Q415.66797 341.7 414.91797 341.7Q414.19922 341.7 413.76172 342.3094Q413.21484 343.09064 413.21484 345.21564ZM419.13672 345.21564Q419.13672 343.6844 419.44922 342.7625Q419.76172 341.825 420.3711 341.325Q420.9961 340.825 421.9336 340.825Q422.6211 340.825 423.13672 341.10626Q423.66797 341.3875 424.01172 341.91876Q424.35547 342.4344 424.54297 343.1844Q424.73047 343.9344 424.73047 345.21564Q424.73047 346.73126 424.41797 347.65314Q424.1211 348.575 423.4961 349.09064Q422.88672 349.59064 421.9336 349.59064Q420.69922 349.59064 419.98047 348.7Q419.13672 347.6375 419.13672 345.21564ZM420.21484 345.21564Q420.21484 347.325 420.71484 348.02814Q421.21484 348.73126 421.9336 348.73126Q422.66797 348.73126 423.15234 348.02814Q423.65234 347.325 423.65234 345.21564Q423.65234 343.09064 423.15234 342.40314Q422.66797 341.7 421.91797 341.7Q421.19922 341.7 420.76172 342.3094Q420.21484 343.09064 420.21484 345.21564ZM426.13672 345.21564Q426.13672 343.6844 426.44922 342.7625Q426.76172 341.825 427.3711 341.325Q427.9961 340.825 428.9336 340.825Q429.6211 340.825 430.13672 341.10626Q430.66797 341.3875 431.01172 341.91876Q431.35547 342.4344 431.54297 343.1844Q431.73047 343.9344 431.73047 345.21564Q431.73047 346.73126 431.41797 347.65314Q431.1211 348.575 430.4961 349.09064Q429.88672 349.59064 428.9336 349.59064Q427.69922 349.59064 426.98047 348.7Q426.13672 347.6375 426.13672 345.21564ZM427.21484 345.21564Q427.21484 347.325 427.71484 348.02814Q428.21484 348.73126 428.9336 348.73126Q429.66797 348.73126 430.15234 348.02814Q430.65234 347.325 430.65234 345.21564Q430.65234 343.09064 430.15234 342.40314Q429.66797 341.7 428.91797 341.7Q428.19922 341.7 427.76172 342.3094Q427.21484 343.09064 427.21484 345.21564ZM433.13672 345.21564Q433.13672 343.6844 433.44922 342.7625Q433.76172 341.825 434.3711 341.325Q434.9961 340.825 435.9336 340.825Q436.6211 340.825 437.13672 341.10626Q437.66797 341.3875 438.01172 341.91876Q438.35547 342.4344 438.54297 343.1844Q438.73047 343.9344 438.73047 345.21564Q438.73047 346.73126 438.41797 347.65314Q438.1211 348.575 437.4961 349.09064Q436.88672 349.59064 435.9336 349.59064Q434.69922 349.59064 433.98047 348.7Q433.13672 347.6375 433.13672 345.21564ZM434.21484 345.21564Q434.21484 347.325 434.71484 348.02814Q435.21484 348.73126 435.9336 348.73126Q436.66797 348.73126 437.15234 348.02814Q437.65234 347.325 437.65234 345.21564Q437.65234 343.09064 437.15234 342.40314Q436.66797 341.7 435.91797 341.7Q435.19922 341.7 434.76172 342.3094Q434.21484 343.09064 434.21484 345.21564Z" fill-rule="nonzero"/><path fill="#000000" d="M485.26212 349.45L484.21524 349.45L484.21524 342.73126Q483.82462 343.09064 483.19962 343.46564Q482.59024 343.825 482.10587 343.9969L482.10587 342.98126Q482.98087 342.5594 483.63712 341.98126Q484.309 341.3875 484.59024 340.825L485.26212 340.825L485.26212 349.45ZM488.29337 345.21564Q488.29337 343.6844 488.60587 342.7625Q488.91837 341.825 489.52774 341.325Q490.15274 340.825 491.09024 340.825Q491.77774 340.825 492.29337 341.10626Q492.82462 341.3875 493.16837 341.91876Q493.51212 342.4344 493.69962 343.1844Q493.88712 343.9344 493.88712 345.21564Q493.88712 346.73126 493.57462 347.65314Q493.27774 348.575 492.65274 349.09064Q492.04337 349.59064 491.09024 349.59064Q489.85587 349.59064 489.13712 348.7Q488.29337 347.6375 488.29337 345.21564ZM489.3715 345.21564Q489.3715 347.325 489.8715 348.02814Q490.3715 348.73126 491.09024 348.73126Q491.82462 348.73126 492.309 348.02814Q492.809 347.325 492.809 345.21564Q492.809 343.09064 492.309 342.40314Q491.82462 341.7 491.07462 341.7Q490.35587 341.7 489.91837 342.3094Q489.3715 343.09064 489.3715 345.21564ZM495.29337 345.21564Q495.29337 343.6844 495.60587 342.7625Q495.91837 341.825 496.52774 341.325Q497.15274 340.825 498.09024 340.825Q498.77774 340.825 499.29337 341.10626Q499.82462 341.3875 500.16837 341.91876Q500.51212 342.4344 500.69962 343.1844Q500.88712 343.9344 500.88712 345.21564Q500.88712 346.73126 500.57462 347.65314Q500.27774 348.575 499.65274 349.09064Q499.04337 349.59064 498.09024 349.59064Q496.85587 349.59064 496.13712 348.7Q495.29337 347.6375 495.29337 345.21564ZM496.3715 345.21564Q496.3715 347.325 496.8715 348.02814Q497.3715 348.73126 498.09024 348.73126Q498.82462 348.73126 499.309 348.02814Q499.809 347.325 499.809 345.21564Q499.809 343.09064 499.309 342.40314Q498.82462 341.7 498.07462 341.7Q497.35587 341.7 496.91837 342.3094Q496.3715 343.09064 496.3715 345.21564ZM502.29337 345.21564Q502.29337 343.6844 502.60587 342.7625Q502.91837 341.825 503.52774 341.325Q504.15274 340.825 505.09024 340.825Q505.77774 340.825 506.29337 341.10626Q506.82462 341.3875 507.16837 341.91876Q507.51212 342.4344 507.69962 343.1844Q507.88712 343.9344 507.88712 345.21564Q507.88712 346.73126 507.57462 347.65314Q507.27774 348.575 506.65274 349.09064Q506.04337 349.59064 505.09024 349.59064Q503.85587 349.59064 503.13712 348.7Q502.29337 347.6375 502.29337 345.21564ZM503.3715 345.21564Q503.3715 347.325 503.8715 348.02814Q504.3715 348.73126 505.09024 348.73126Q505.82462 348.73126 506.309 348.02814Q506.809 347.325 506.809 345.21564Q506.809 343.09064 506.309 342.40314Q505.82462 341.7 505.07462 341.7Q504.35587 341.7 503.91837 342.3094Q503.3715 343.09064 503.3715 345.21564ZM509.29337 345.21564Q509.29337 343.6844 509.60587 342.7625Q509.91837 341.825 510.52774 341.325Q511.15274 340.825 512.0902 340.825Q512.7777 340.825 513.29333 341.10626Q513.8246 341.3875 514.16833 341.91876Q514.5121 342.4344 514.6996 343.1844Q514.8871 343.9344 514.8871 345.21564Q514.8871 346.73126 514.5746 347.65314Q514.2777 348.575 513.6527 349.09064Q513.04333 349.59064 512.0902 349.59064Q510.85587 349.59064 510.13712 348.7Q509.29337 347.6375 509.29337 345.21564ZM510.3715 345.21564Q510.3715 347.325 510.8715 348.02814Q511.3715 348.73126 512.0902 348.73126Q512.8246 348.73126 513.30896 348.02814Q513.80896 347.325 513.80896 345.21564Q513.80896 343.09064 513.30896 342.40314Q512.8246 341.7 512.0746 341.7Q511.35587 341.7 510.91837 342.3094Q510.3715 343.09064 510.3715 345.21564ZM516.29333 345.21564Q516.29333 343.6844 516.60583 342.7625Q516.91833 341.825 517.5277 341.325Q518.1527 340.825 519.0902 340.825Q519.7777 340.825 520.29333 341.10626Q520.8246 341.3875 521.16833 341.91876Q521.5121 342.4344 521.6996 343.1844Q521.8871 343.9344 521.8871 345.21564Q521.8871 346.73126 521.5746 347.65314Q521.2777 348.575 520.6527 349.09064Q520.04333 349.59064 519.0902 349.59064Q517.85583 349.59064 517.1371 348.7Q516.29333 347.6375 516.29333 345.21564ZM517.37146 345.21564Q517.37146 347.325 517.87146 348.02814Q518.37146 348.73126 519.0902 348.73126Q519.8246 348.73126 520.30896 348.02814Q520.80896 347.325 520.80896 345.21564Q520.80896 343.09064 520.30896 342.40314Q519.8246 341.7 519.0746 341.7Q518.35583 341.7 517.91833 342.3094Q517.37146 343.09064 517.37146 345.21564Z" fill-rule="nonzero"/><path stroke="#ff0000" stroke-width="4.0" stroke-linecap="butt" stroke-dasharray="13.0,9.0" d="M135.0 25.55L170.0 25.55" fill-rule="nonzero"/><path fill="#1a1a1a" d="M178.79688 31.940624L178.79688 23.33125L179.75 23.33125L179.75 24.128124Q180.09375 23.659374 180.51562 23.425Q180.95312 23.190624 181.5625 23.190624Q182.35938 23.190624 182.96875 23.596874Q183.57812 24.003124 183.875 24.753124Q184.1875 25.503124 184.1875 26.39375Q184.1875 27.346874 183.84375 28.1125Q183.51562 28.878124 182.85938 29.284374Q182.20312 29.690624 181.48438 29.690624Q180.95312 29.690624 180.53125 29.471874Q180.10938 29.2375 179.84375 28.909374L179.84375 31.940624L178.79688 31.940624ZM179.75 26.471874Q179.75 27.675 180.23438 28.253124Q180.71875 28.815624 181.40625 28.815624Q182.10938 28.815624 182.60938 28.221874Q183.10938 27.628124 183.10938 26.378124Q183.10938 25.190624 182.625 24.6125Q182.14062 24.01875 181.45312 24.01875Q180.78125 24.01875 180.26562 24.64375Q179.75 25.26875 179.75 26.471874ZM184.8125 31.940624L184.8125 31.175L191.8125 31.175L191.8125 31.940624L184.8125 31.940624ZM192.79688 29.55L192.79688 20.95625L193.84375 20.95625L193.84375 24.034374Q194.57812 23.190624 195.70312 23.190624Q196.40625 23.190624 196.90625 23.471874Q197.42188 23.7375 197.64062 24.221874Q197.85938 24.690624 197.85938 25.6125L197.85938 29.55L196.8125 29.55L196.8125 25.6125Q196.8125 24.815624 196.46875 24.45625Q196.125 24.096874 195.5 24.096874Q195.03125 24.096874 194.60938 24.346874Q194.20312 24.58125 194.01562 25.003124Q193.84375 25.409374 193.84375 26.14375L193.84375 29.55L192.79688 29.55ZM204.04688 27.55L205.14062 27.675Q204.89062 28.628124 204.1875 29.159374Q203.48438 29.690624 202.40625 29.690624Q201.04688 29.690624 200.23438 28.846874Q199.4375 28.003124 199.4375 26.4875Q199.4375 24.925 200.25 24.065624Q201.0625 23.190624 202.34375 23.190624Q203.59375 23.190624 204.375 24.034374Q205.17188 24.878124 205.17188 26.425Q205.17188 26.51875 205.17188 26.70625L200.53125 26.70625Q200.59375 27.7375 201.10938 28.284374Q201.625 28.815624 202.40625 28.815624Q202.98438 28.815624 203.39062 28.51875Q203.8125 28.20625 204.04688 27.55ZM200.59375 25.846874L204.0625 25.846874Q204.0 25.05 203.67188 24.659374Q203.15625 24.05 202.35938 24.05Q201.625 24.05 201.125 24.534374Q200.64062 25.01875 200.59375 25.846874ZM210.85938 28.784374Q210.26562 29.284374 209.71875 29.4875Q209.1875 29.690624 208.5625 29.690624Q207.53125 29.690624 206.98438 29.190624Q206.4375 28.690624 206.4375 27.909374Q206.4375 27.45625 206.64062 27.08125Q206.84375 26.690624 207.1875 26.471874Q207.53125 26.2375 207.95312 26.128124Q208.25 26.034374 208.89062 25.95625Q210.15625 25.815624 210.76562 25.596874Q210.76562 25.378124 210.76562 25.33125Q210.76562 24.675 210.46875 24.409374Q210.0625 24.065624 209.26562 24.065624Q208.53125 24.065624 208.17188 24.33125Q207.8125 24.58125 207.64062 25.2375L206.60938 25.096874Q206.75 24.440624 207.07812 24.034374Q207.40625 23.628124 208.01562 23.409374Q208.625 23.190624 209.42188 23.190624Q210.21875 23.190624 210.71875 23.378124Q211.21875 23.565624 211.45312 23.846874Q211.6875 24.128124 211.78125 24.565624Q211.82812 24.83125 211.82812 25.534374L211.82812 26.940624Q211.82812 28.409374 211.89062 28.8Q211.96875 29.190624 212.17188 29.55L211.0625 29.55Q210.90625 29.221874 210.85938 28.784374ZM210.76562 26.425Q210.1875 26.659374 209.04688 26.83125Q208.39062 26.925 208.125 27.05Q207.85938 27.159374 207.70312 27.378124Q207.5625 27.596874 207.5625 27.878124Q207.5625 28.3 207.875 28.58125Q208.20312 28.8625 208.8125 28.8625Q209.42188 28.8625 209.89062 28.596874Q210.375 28.33125 210.59375 27.8625Q210.76562 27.503124 210.76562 26.815624L210.76562 26.425ZM213.79688 31.940624L213.79688 23.33125L214.75 23.33125L214.75 24.128124Q215.09375 23.659374 215.51562 23.425Q215.95312 23.190624 216.5625 23.190624Q217.35938 23.190624 217.96875 23.596874Q218.57812 24.003124 218.875 24.753124Q219.1875 25.503124 219.1875 26.39375Q219.1875 27.346874 218.84375 28.1125Q218.51562 28.878124 217.85938 29.284374Q217.20312 29.690624 216.48438 29.690624Q215.95312 29.690624 215.53125 29.471874Q215.10938 29.2375 214.84375 28.909374L214.84375 31.940624L213.79688 31.940624ZM214.75 26.471874Q214.75 27.675 215.23438 28.253124Q215.71875 28.815624 216.40625 28.815624Q217.10938 28.815624 217.60938 28.221874Q218.10938 27.628124 218.10938 26.378124Q218.10938 25.190624 217.625 24.6125Q217.14062 24.01875 216.45312 24.01875Q215.78125 24.01875 215.26562 24.64375Q214.75 25.26875 214.75 26.471874Z" fill-rule="nonzero"/><path stroke="#ea4335" stroke-width="4.0" stroke-linecap="butt" d="M236.0 25.55L248.0 25.55" fill-rule="nonzero"/><path fill="#1a1a1a" d="M256.79688 31.940624L256.79688 23.33125L257.75 23.33125L257.75 24.128124Q258.09375 23.659374 258.51562 23.425Q258.95312 23.190624 259.5625 23.190624Q260.35938 23.190624 260.96875 23.596874Q261.57812 24.003124 261.875 24.753124Q262.1875 25.503124 262.1875 26.39375Q262.1875 27.346874 261.84375 28.1125Q261.51562 28.878124 260.85938 29.284374Q260.20312 29.690624 259.48438 29.690624Q258.95312 29.690624 258.53125 29.471874Q258.10938 29.2375 257.84375 28.909374L257.84375 31.940624L256.79688 31.940624ZM257.75 26.471874Q257.75 27.675 258.23438 28.253124Q258.71875 28.815624 259.40625 28.815624Q260.10938 28.815624 260.60938 28.221874Q261.10938 27.628124 261.10938 26.378124Q261.10938 25.190624 260.625 24.6125Q260.14062 24.01875 259.45312 24.01875Q258.78125 24.01875 258.26562 24.64375Q257.75 25.26875 257.75 26.471874ZM262.8125 31.940624L262.8125 31.175L269.8125 31.175L269.8125 31.940624L262.8125 31.940624ZM270.79688 31.940624L270.79688 23.33125L271.75 23.33125L271.75 24.128124Q272.09375 23.659374 272.51562 23.425Q272.95312 23.190624 273.5625 23.190624Q274.35938 23.190624 274.96875 23.596874Q275.57812 24.003124 275.875 24.753124Q276.1875 25.503124 276.1875 26.39375Q276.1875 27.346874 275.84375 28.1125Q275.51562 28.878124 274.85938 29.284374Q274.20312 29.690624 273.48438 29.690624Q272.95312 29.690624 272.53125 29.471874Q272.10938 29.2375 271.84375 28.909374L271.84375 31.940624L270.79688 31.940624ZM271.75 26.471874Q271.75 27.675 272.23438 28.253124Q272.71875 28.815624 273.40625 28.815624Q274.10938 28.815624 274.60938 28.221874Q275.10938 27.628124 275.10938 26.378124Q275.10938 25.190624 274.625 24.6125Q274.14062 24.01875 273.45312 24.01875Q272.78125 24.01875 272.26562 24.64375Q271.75 25.26875 271.75 26.471874ZM277.78125 29.55L277.78125 23.33125L278.73438 23.33125L278.73438 24.26875Q279.09375 23.6125 279.39062 23.409374Q279.70312 23.190624 280.07812 23.190624Q280.60938 23.190624 281.15625 23.51875L280.79688 24.503124Q280.40625 24.26875 280.03125 24.26875Q279.67188 24.26875 279.39062 24.4875Q279.125 24.690624 279.01562 25.065624Q278.82812 25.628124 278.82812 26.284374L278.82812 29.55L277.78125 29.55ZM281.40625 26.440624Q281.40625 24.70625 282.35938 23.878124Q283.15625 23.190624 284.3125 23.190624Q285.59375 23.190624 286.40625 24.034374Q287.23438 24.8625 287.23438 26.346874Q287.23438 27.55 286.875 28.2375Q286.51562 28.925 285.8125 29.315624Q285.125 29.690624 284.3125 29.690624Q283.01562 29.690624 282.20312 28.8625Q281.40625 28.01875 281.40625 26.440624ZM282.48438 26.440624Q282.48438 27.628124 283.0 28.221874Q283.53125 28.815624 284.3125 28.815624Q285.10938 28.815624 285.625 28.221874Q286.14062 27.628124 286.14062 26.409374Q286.14062 25.253124 285.60938 24.659374Q285.09375 24.065624 284.3125 24.065624Q283.53125 24.065624 283.0 24.659374Q282.48438 25.2375 282.48438 26.440624ZM292.85938 27.26875L293.89062 27.409374Q293.71875 28.471874 293.01562 29.08125Q292.3125 29.690624 291.29688 29.690624Q290.01562 29.690624 289.23438 28.8625Q288.46875 28.01875 288.46875 26.45625Q288.46875 25.45625 288.79688 24.70625Q289.14062 23.940624 289.8125 23.565624Q290.5 23.190624 291.3125 23.190624Q292.3125 23.190624 292.95312 23.70625Q293.60938 24.20625 293.79688 25.159374L292.76562 25.315624Q292.625 24.690624 292.25 24.378124Q291.875 24.05 291.34375 24.05Q290.54688 24.05 290.04688 24.628124Q289.54688 25.190624 289.54688 26.425Q289.54688 27.690624 290.03125 28.253124Q290.51562 28.815624 291.28125 28.815624Q291.90625 28.815624 292.3125 28.440624Q292.73438 28.065624 292.85938 27.26875Z" fill-rule="nonzero"/><path stroke="#34a853" stroke-width="4.0" stroke-linecap="butt" stroke-dasharray="13.0,9.0" d="M310.0 25.55L345.0 25.55" fill-rule="nonzero"/><path fill="#1a1a1a" d="M355.51562 29.55L353.15625 23.33125L354.26562 23.33125L355.60938 27.05Q355.8125 27.659374 356.0 28.3Q356.14062 27.815624 356.39062 27.128124L357.78125 23.33125L358.85938 23.33125L356.5 29.55L355.51562 29.55ZM357.8125 31.940624L357.8125 31.175L364.8125 31.175L364.8125 31.940624L357.8125 31.940624ZM365.79688 29.55L365.79688 20.95625L366.84375 20.95625L366.84375 24.034374Q367.57812 23.190624 368.70312 23.190624Q369.40625 23.190624 369.90625 23.471874Q370.42188 23.7375 370.64062 24.221874Q370.85938 24.690624 370.85938 25.6125L370.85938 29.55L369.8125 29.55L369.8125 25.6125Q369.8125 24.815624 369.46875 24.45625Q369.125 24.096874 368.5 24.096874Q368.03125 24.096874 367.60938 24.346874Q367.20312 24.58125 367.01562 25.003124Q366.84375 25.409374 366.84375 26.14375L366.84375 29.55L365.79688 29.55ZM377.04688 27.55L378.14062 27.675Q377.89062 28.628124 377.1875 29.159374Q376.48438 29.690624 375.40625 29.690624Q374.04688 29.690624 373.23438 28.846874Q372.4375 28.003124 372.4375 26.4875Q372.4375 24.925 373.25 24.065624Q374.0625 23.190624 375.34375 23.190624Q376.59375 23.190624 377.375 24.034374Q378.17188 24.878124 378.17188 26.425Q378.17188 26.51875 378.17188 26.70625L373.53125 26.70625Q373.59375 27.7375 374.10938 28.284374Q374.625 28.815624 375.40625 28.815624Q375.98438 28.815624 376.39062 28.51875Q376.8125 28.20625 377.04688 27.55ZM373.59375 25.846874L377.0625 25.846874Q377.0 25.05 376.67188 24.659374Q376.15625 24.05 375.35938 24.05Q374.625 24.05 374.125 24.534374Q373.64062 25.01875 373.59375 25.846874ZM383.85938 28.784374Q383.26562 29.284374 382.71875 29.4875Q382.1875 29.690624 381.5625 29.690624Q380.53125 29.690624 379.98438 29.190624Q379.4375 28.690624 379.4375 27.909374Q379.4375 27.45625 379.64062 27.08125Q379.84375 26.690624 380.1875 26.471874Q380.53125 26.2375 380.95312 26.128124Q381.25 26.034374 381.89062 25.95625Q383.15625 25.815624 383.76562 25.596874Q383.76562 25.378124 383.76562 25.33125Q383.76562 24.675 383.46875 24.409374Q383.0625 24.065624 382.26562 24.065624Q381.53125 24.065624 381.17188 24.33125Q380.8125 24.58125 380.64062 25.2375L379.60938 25.096874Q379.75 24.440624 380.07812 24.034374Q380.40625 23.628124 381.01562 23.409374Q381.625 23.190624 382.42188 23.190624Q383.21875 23.190624 383.71875 23.378124Q384.21875 23.565624 384.45312 23.846874Q384.6875 24.128124 384.78125 24.565624Q384.82812 24.83125 384.82812 25.534374L384.82812 26.940624Q384.82812 28.409374 384.89062 28.8Q384.96875 29.190624 385.17188 29.55L384.0625 29.55Q383.90625 29.221874 383.85938 28.784374ZM383.76562 26.425Q383.1875 26.659374 382.04688 26.83125Q381.39062 26.925 381.125 27.05Q380.85938 27.159374 380.70312 27.378124Q380.5625 27.596874 380.5625 27.878124Q380.5625 28.3 380.875 28.58125Q381.20312 28.8625 381.8125 28.8625Q382.42188 28.8625 382.89062 28.596874Q383.375 28.33125 383.59375 27.8625Q383.76562 27.503124 383.76562 26.815624L383.76562 26.425ZM386.79688 31.940624L386.79688 23.33125L387.75 23.33125L387.75 24.128124Q388.09375 23.659374 388.51562 23.425Q388.95312 23.190624 389.5625 23.190624Q390.35938 23.190624 390.96875 23.596874Q391.57812 24.003124 391.875 24.753124Q392.1875 25.503124 392.1875 26.39375Q392.1875 27.346874 391.84375 28.1125Q391.51562 28.878124 390.85938 29.284374Q390.20312 29.690624 389.48438 29.690624Q388.95312 29.690624 388.53125 29.471874Q388.10938 29.2375 387.84375 28.909374L387.84375 31.940624L386.79688 31.940624ZM387.75 26.471874Q387.75 27.675 388.23438 28.253124Q388.71875 28.815624 389.40625 28.815624Q390.10938 28.815624 390.60938 28.221874Q391.10938 27.628124 391.10938 26.378124Q391.10938 25.190624 390.625 24.6125Q390.14062 24.01875 389.45312 24.01875Q388.78125 24.01875 388.26562 24.64375Q387.75 25.26875 387.75 26.471874Z" fill-rule="nonzero"/><path stroke="#34a853" stroke-width="4.0" stroke-linecap="butt" d="M409.0 25.55L421.0 25.55" fill-rule="nonzero"/><path fill="#1a1a1a" d="M431.51562 29.55L429.15625 23.33125L430.26562 23.33125L431.60938 27.05Q431.8125 27.659374 432.0 28.3Q432.14062 27.815624 432.39062 27.128124L433.78125 23.33125L434.85938 23.33125L432.5 29.55L431.51562 29.55ZM433.8125 31.940624L433.8125 31.175L440.8125 31.175L440.8125 31.940624L433.8125 31.940624ZM441.79688 31.940624L441.79688 23.33125L442.75 23.33125L442.75 24.128124Q443.09375 23.659374 443.51562 23.425Q443.95312 23.190624 444.5625 23.190624Q445.35938 23.190624 445.96875 23.596874Q446.57812 24.003124 446.875 24.753124Q447.1875 25.503124 447.1875 26.39375Q447.1875 27.346874 446.84375 28.1125Q446.51562 28.878124 445.85938 29.284374Q445.20312 29.690624 444.48438 29.690624Q443.95312 29.690624 443.53125 29.471874Q443.10938 29.2375 442.84375 28.909374L442.84375 31.940624L441.79688 31.940624ZM442.75 26.471874Q442.75 27.675 443.23438 28.253124Q443.71875 28.815624 444.40625 28.815624Q445.10938 28.815624 445.60938 28.221874Q446.10938 27.628124 446.10938 26.378124Q446.10938 25.190624 445.625 24.6125Q445.14062 24.01875 444.45312 24.01875Q443.78125 24.01875 443.26562 24.64375Q442.75 25.26875 442.75 26.471874ZM448.78125 29.55L448.78125 23.33125L449.73438 23.33125L449.73438 24.26875Q450.09375 23.6125 450.39062 23.409374Q450.70312 23.190624 451.07812 23.190624Q451.60938 23.190624 452.15625 23.51875L451.79688 24.503124Q451.40625 24.26875 451.03125 24.26875Q450.67188 24.26875 450.39062 24.4875Q450.125 24.690624 450.01562 25.065624Q449.82812 25.628124 449.82812 26.284374L449.82812 29.55L448.78125 29.55ZM452.40625 26.440624Q452.40625 24.70625 453.35938 23.878124Q454.15625 23.190624 455.3125 23.190624Q456.59375 23.190624 457.40625 24.034374Q458.23438 24.8625 458.23438 26.346874Q458.23438 27.55 457.875 28.2375Q457.51562 28.925 456.8125 29.315624Q456.125 29.690624 455.3125 29.690624Q454.01562 29.690624 453.20312 28.8625Q452.40625 28.01875 452.40625 26.440624ZM453.48438 26.440624Q453.48438 27.628124 454.0 28.221874Q454.53125 28.815624 455.3125 28.815624Q456.10938 28.815624 456.625 28.221874Q457.14062 27.628124 457.14062 26.409374Q457.14062 25.253124 456.60938 24.659374Q456.09375 24.065624 455.3125 24.065624Q454.53125 24.065624 454.0 24.659374Q453.48438 25.2375 453.48438 26.440624ZM463.85938 27.26875L464.89062 27.409374Q464.71875 28.471874 464.01562 29.08125Q463.3125 29.690624 462.29688 29.690624Q461.01562 29.690624 460.23438 28.8625Q459.46875 28.01875 459.46875 26.45625Q459.46875 25.45625 459.79688 24.70625Q460.14062 23.940624 460.8125 23.565624Q461.5 23.190624 462.3125 23.190624Q463.3125 23.190624 463.95312 23.70625Q464.60938 24.20625 464.79688 25.159374L463.76562 25.315624Q463.625 24.690624 463.25 24.378124Q462.875 24.05 462.34375 24.05Q461.54688 24.05 461.04688 24.628124Q460.54688 25.190624 460.54688 26.425Q460.54688 27.690624 461.03125 28.253124Q461.51562 28.815624 462.28125 28.815624Q462.90625 28.815624 463.3125 28.440624Q463.73438 28.065624 463.85938 27.26875Z" fill-rule="nonzero"/></svg>